<svg width="368" height="473" viewBox="0 0 368 473" fill="none" xmlns="http://www.w3.org/2000/svg">
<path d="M1 40C1 18 19 0 41 0H278L367 89V432C367 454 349 472 327 472H41C19 472 1 454 1 432V40Z" fill="#CFD2FC"/>
<path d="M278 0L367 89H308C291 89 278 76 278 59V0Z" fill="#8690FA"/>
<path d="M268 160H100C88.9543 160 80 168.954 80 180V270C80 281.046 88.9543 290 100 290H268C279.046 290 288 281.046 288 270V180C288 168.954 279.046 160 268 160Z" fill="#8690FA"/>
<path d="M168 200L218 225L168 250V200Z" fill="white"/>
<path d="M1 437.761V348H367V437.299L366.5 441L365 447.015L363 451.642L360 456.269L356.5 460.433L351.5 464.134L346.5 467.373L341.5 469.687L335 471.537L330 472H39L35 471.537L31 471.075L26.5 469.687L23.5 468.299L19 465.985L15 463.209L12 460.433L9.5 457.657L7 454.418L5 451.179L3 447.015L2 443.313L1 437.761Z" fill="#5153FF" stroke="#5153FF"/>
<path d="M92.4485 442.48C93.6485 441.76 94.7525 440.824 95.7605 439.672C96.7685 438.52 97.8245 437.392 98.9285 436.288C98.2565 436.72 97.6565 437.2 97.1285 437.728L95.6165 439.24C95.0885 439.768 94.5125 440.296 93.8885 440.824C93.3125 441.304 92.6165 441.736 91.8005 442.12C91.5605 441.88 91.3685 441.688 91.2245 441.544C91.1285 441.4 91.0805 441.208 91.0805 440.968C91.0805 440.728 91.1045 440.584 91.1525 440.536L93.4565 438.232C93.4565 438.424 93.5765 438.592 93.8165 438.736C94.0565 438.832 94.2485 438.88 94.3925 438.88C94.6325 438.16 94.9925 437.584 95.4725 437.152C95.9525 436.72 96.4565 436.336 96.9845 436C97.5125 435.616 98.0165 435.208 98.4965 434.776C98.9765 434.344 99.3365 433.768 99.5765 433.048C99.5285 433 99.5045 432.952 99.5045 432.904C99.4085 432.808 99.3365 432.76 99.2885 432.76L93.8885 437.8C94.2245 437.416 94.7765 436.768 95.5445 435.856C96.3125 434.944 97.1045 434.008 97.9205 433.048C98.7365 432.088 99.4805 431.248 100.152 430.528C100.872 429.808 101.328 429.448 101.52 429.448L101.592 429.52C101.976 429.664 102.504 429.808 103.176 429.952C103.896 430.048 104.424 430.096 104.76 430.096C105.096 430.096 105.48 430.024 105.912 429.88C105.912 430.168 106.056 430.504 106.344 430.888C106.632 431.272 106.944 431.656 107.28 432.04C107.616 432.424 107.928 432.808 108.216 433.192C108.504 433.528 108.648 433.792 108.648 433.984C108.648 434.32 108.528 434.488 108.288 434.488H108.072C108.072 434.92 108.096 435.688 108.144 436.792C108.24 437.848 108.288 439.072 108.288 440.464C108.288 441.232 108.048 441.904 107.568 442.48C107.088 443.056 106.536 443.56 105.912 443.992C105.288 444.424 104.64 444.784 103.968 445.072C103.344 445.36 102.864 445.576 102.528 445.72C102.24 445.72 102.12 445.864 102.168 446.152C102.216 446.488 102.12 446.656 101.88 446.656H101.52C101.376 446.656 101.16 446.584 100.872 446.44C100.584 446.344 100.272 446.2 99.9365 446.008C99.9845 445.864 100.224 445.504 100.656 444.928C101.136 444.304 101.64 443.656 102.168 442.984C102.696 442.264 103.2 441.616 103.68 441.04C104.16 440.416 104.472 440.032 104.616 439.888C104.376 440.032 103.992 440.392 103.464 440.968C102.936 441.496 102.384 442.096 101.808 442.768C101.28 443.392 100.752 443.992 100.224 444.568C99.7445 445.096 99.4325 445.432 99.2885 445.576C98.6645 445.24 98.2325 445.072 97.9925 445.072L97.6325 445.36C97.1045 445.36 96.5285 445.24 95.9045 445C95.3285 444.808 94.7765 444.568 94.2485 444.28C93.7685 443.992 93.3365 443.704 92.9525 443.416C92.6165 443.128 92.4485 442.912 92.4485 442.768V442.48ZM147.294 441.544C147.294 439.96 147.174 438.352 146.934 436.72C146.742 435.088 146.646 433.504 146.646 431.968V430.024C146.406 428.152 146.118 425.968 145.782 423.472C145.446 420.928 145.014 418.528 144.486 416.272C143.958 414.016 143.31 412.096 142.542 410.512C141.774 408.928 140.814 408.136 139.662 408.136C137.982 408.136 136.254 408.928 134.478 410.512C132.702 412.048 131.214 414.304 130.014 417.28C129.438 418.96 129.03 420.736 128.79 422.608C128.598 424.48 128.43 426.448 128.286 428.512C128.142 430.576 127.998 432.712 127.854 434.92C127.758 437.08 127.542 439.336 127.206 441.688C127.11 441.928 127.014 442.216 126.918 442.552C126.87 442.888 126.822 443.176 126.774 443.416H117.918V437.584C117.87 437.104 117.822 436.528 117.774 435.856C117.726 435.184 117.654 434.512 117.558 433.84C117.51 433.12 117.462 432.424 117.414 431.752C117.366 431.08 117.318 430.504 117.27 430.024C117.27 426.136 117.102 422.248 116.766 418.36C116.478 414.472 116.286 410.512 116.19 406.48L117.846 406.12C117.99 406.12 118.134 406.264 118.278 406.552C118.47 406.792 118.614 407.272 118.71 407.992C118.854 408.712 118.974 409.744 119.07 411.088C119.214 412.384 119.334 414.088 119.43 416.2C119.478 416.2 119.55 416.176 119.646 416.128C119.838 416.032 119.982 415.984 120.078 415.984C120.078 415.648 120.054 415.312 120.006 414.976C120.006 414.64 120.006 414.304 120.006 413.968C120.006 409.84 120.27 406.672 120.798 404.464C121.374 402.208 121.854 401.08 122.238 401.08C122.526 401.08 122.814 401.704 123.102 402.952C123.39 404.2 123.702 406.168 124.038 408.856C124.854 407.56 125.79 406.312 126.846 405.112C127.902 403.912 129.078 402.88 130.374 402.016C131.718 401.104 133.158 400.384 134.694 399.856C136.23 399.328 137.91 399.064 139.734 399.064C141.318 399.064 142.71 399.4 143.91 400.072C145.11 400.744 146.166 401.632 147.078 402.736C148.038 403.792 148.83 405.016 149.454 406.408C150.126 407.752 150.702 409.12 151.182 410.512C151.662 411.856 152.046 413.176 152.334 414.472C152.67 415.72 152.958 416.776 153.198 417.64C153.198 417.736 153.222 417.856 153.27 418C153.318 418.096 153.366 418.192 153.414 418.288C153.99 416.752 154.71 415 155.574 413.032C156.438 411.016 157.518 409.12 158.814 407.344C160.11 405.568 161.622 404.08 163.35 402.88C165.126 401.632 167.166 401.008 169.47 401.008C171.726 401.008 173.646 401.608 175.23 402.808C176.814 404.008 178.134 405.544 179.19 407.416C180.294 409.288 181.158 411.376 181.782 413.68C182.454 415.936 182.958 418.168 183.294 420.376C183.63 422.536 183.846 424.528 183.942 426.352C184.038 428.176 184.086 429.568 184.086 430.528C184.086 432.064 184.014 433.192 183.87 433.912C183.774 434.632 183.462 434.992 182.934 434.992C182.838 433.072 182.742 431.128 182.646 429.16C182.598 427.192 182.454 425.224 182.214 423.256C182.022 421.24 181.734 419.272 181.35 417.352C180.966 415.48 180.462 413.632 179.838 411.808C181.038 415.6 181.734 419.392 181.926 423.184C182.166 427.024 182.358 430.816 182.502 434.56C182.166 434.224 181.902 434.056 181.71 434.056C181.566 434.056 181.47 434.152 181.422 434.344V436.504C181.422 437.128 181.422 437.776 181.422 438.448C181.47 439.12 181.542 439.696 181.638 440.176C181.542 442.144 181.446 443.56 181.35 444.424C181.302 445.24 181.134 445.768 180.846 446.008C180.462 446.008 180.126 445.792 179.838 445.36C179.55 444.928 179.262 444.376 178.974 443.704C178.734 443.032 178.494 442.288 178.254 441.472C178.014 440.656 177.774 439.864 177.534 439.096V437.152C177.534 435.04 177.51 432.832 177.462 430.528C177.462 428.224 177.366 425.992 177.174 423.832C177.03 421.624 176.766 419.536 176.382 417.568C176.046 415.6 175.566 413.872 174.942 412.384C174.366 410.848 173.598 409.648 172.638 408.784C171.726 407.92 170.598 407.488 169.254 407.488C168.15 407.488 167.142 407.776 166.23 408.352C165.702 408.688 165.174 409.12 164.646 409.648C165.174 409.168 165.726 408.76 166.302 408.424C167.214 407.848 168.198 407.56 169.254 407.56H169.542C170.742 407.56 171.75 408.04 172.566 409C173.43 409.912 174.126 411.136 174.654 412.672C175.23 414.208 175.662 415.96 175.95 417.928C176.238 419.896 176.454 421.936 176.598 424.048C176.79 426.16 176.91 428.272 176.958 430.384C177.006 432.448 177.054 434.344 177.102 436.072C176.814 434.728 176.55 433.144 176.31 431.32C176.118 429.448 175.902 427.504 175.662 425.488C175.47 423.472 175.206 421.48 174.87 419.512C174.582 417.544 174.198 415.792 173.718 414.256C173.238 412.672 172.638 411.4 171.918 410.44C171.198 409.48 170.31 409 169.254 409C168.822 409 168.438 409.048 168.102 409.144C167.766 409.192 167.334 409.432 166.806 409.864L166.086 409.504C164.454 410.944 163.086 412.864 161.982 415.264C160.878 417.664 159.942 420.256 159.174 423.04C158.406 425.776 157.758 428.584 157.23 431.464C156.702 434.344 156.198 437.008 155.718 439.456V442.192C156.486 438.4 157.182 434.68 157.806 431.032C158.478 427.336 159.438 423.76 160.686 420.304C159.726 423.28 158.982 426.352 158.454 429.52C157.926 432.688 157.326 435.928 156.654 439.24C156.654 439.576 156.582 440.032 156.438 440.608C156.294 441.184 156.054 442.048 155.718 443.2L147.798 442.408L147.294 441.544ZM148.086 437.944C147.942 436.648 147.798 434.992 147.654 432.976C147.558 430.96 147.414 428.824 147.222 426.568C147.03 424.312 146.766 422.032 146.43 419.728C146.094 417.424 145.614 415.36 144.99 413.536C144.414 411.664 143.67 410.152 142.758 409C141.894 407.848 140.79 407.272 139.446 407.272C139.014 407.272 138.558 407.368 138.078 407.56C137.598 407.752 137.142 407.968 136.71 408.208C136.854 408.16 136.974 408.136 137.07 408.136H137.142C137.142 408.184 137.07 408.28 136.926 408.424C138.222 407.992 139.23 407.776 139.95 407.776C140.862 408.112 141.678 408.856 142.398 410.008C143.118 411.16 143.718 412.552 144.198 414.184C144.726 415.768 145.158 417.496 145.494 419.368C145.878 421.24 146.166 423.04 146.358 424.768C146.55 426.448 146.694 427.96 146.79 429.304C146.886 430.648 146.934 431.608 146.934 432.184C147.078 433.624 147.198 435.04 147.294 436.432C147.438 437.824 147.51 439.216 147.51 440.608L148.086 437.944ZM154.134 418.576C154.134 418.624 154.182 418.84 154.278 419.224C154.374 419.56 154.446 419.776 154.494 419.872C154.638 419.392 154.95 418.624 155.43 417.568C155.91 416.464 156.438 415.312 157.014 414.112C157.59 412.864 158.142 411.712 158.67 410.656C158.862 410.224 159.03 409.84 159.174 409.504C159.03 409.792 158.838 410.104 158.598 410.44C158.07 411.4 157.494 412.408 156.87 413.464C156.246 414.472 155.67 415.456 155.142 416.416C154.614 417.376 154.278 418.096 154.134 418.576ZM159.822 417.712C158.862 420.16 158.022 422.752 157.302 425.488C156.582 428.176 155.934 430.96 155.358 433.84L155.502 434.992C156.126 431.536 156.846 428.056 157.662 424.552C158.43 421.48 159.414 418.576 160.614 415.84C160.566 415.984 160.518 416.104 160.47 416.2C160.23 416.68 160.014 417.184 159.822 417.712ZM148.086 427.504C148.182 428.272 148.23 429.016 148.23 429.736C148.278 430.456 148.326 431.128 148.374 431.752L148.59 435.208L148.662 434.848C148.614 434.176 148.59 433.528 148.59 432.904V431.104L148.086 427.504ZM171.702 402.808C170.838 402.568 170.022 402.448 169.254 402.448H168.462C168.126 402.448 167.958 402.472 167.958 402.52H168.03C168.798 402.712 169.518 402.808 170.19 402.808H171.702ZM161.046 419.296C161.286 418.624 161.502 417.976 161.694 417.352C161.934 416.728 162.126 416.296 162.27 416.056C162.27 416.152 162.222 416.344 162.126 416.632C162.03 416.968 161.838 417.472 161.55 418.144L161.046 419.296ZM176.67 405.832C176.43 405.544 176.118 405.256 175.734 404.968C175.446 404.776 175.182 404.608 174.942 404.464C175.518 404.848 176.094 405.304 176.67 405.832ZM159.534 408.856C159.438 408.952 159.366 409.096 159.318 409.288C159.414 409.144 159.486 409 159.534 408.856ZM206.54 401.656C206.588 401.896 206.852 402.016 207.332 402.016H207.476C207.764 402.016 207.956 402.04 208.052 402.088C210.548 402.856 213.02 403.984 215.468 405.472C217.964 406.912 220.196 408.664 222.164 410.728C224.18 412.744 225.788 415.048 226.988 417.64C228.236 420.232 228.86 423.016 228.86 425.992C228.86 428.584 228.356 431.08 227.348 433.48C226.34 435.88 224.948 437.968 223.172 439.744C224.996 438.16 226.436 436.192 227.492 433.84C228.596 431.44 229.148 428.872 229.148 426.136C229.148 423.064 228.5 420.208 227.204 417.568C225.908 414.88 224.252 412.48 222.236 410.368C220.22 408.256 217.964 406.456 215.468 404.968C213.02 403.432 210.62 402.256 208.268 401.44C210.092 401.44 211.94 401.848 213.812 402.664C215.732 403.48 217.556 404.56 219.284 405.904C221.012 407.2 222.596 408.712 224.036 410.44C225.524 412.12 226.772 413.848 227.78 415.624L227.276 416.344C228.236 417.784 228.956 419.344 229.436 421.024C229.964 422.704 230.228 424.432 230.228 426.208C230.228 429.616 229.484 432.616 227.996 435.208C226.556 437.752 224.708 439.888 222.452 441.616C220.244 443.296 217.796 444.568 215.108 445.432C212.468 446.296 209.972 446.728 207.62 446.728C206.276 446.728 204.908 446.584 203.516 446.296C202.172 446.008 200.804 445.528 199.412 444.856V445.288C200.756 446.056 202.124 446.584 203.516 446.872C204.956 447.16 206.372 447.304 207.764 447.304C211.22 447.304 214.604 446.536 217.916 445C221.276 443.512 224.108 441.4 226.412 438.664C224.204 441.496 221.444 443.704 218.132 445.288C214.868 446.872 211.46 447.664 207.908 447.664C204.26 447.664 201.308 446.944 199.052 445.504C196.796 444.112 195.02 442.384 193.724 440.32C192.476 438.256 191.636 436.072 191.204 433.768C190.772 431.464 190.556 429.4 190.556 427.576C190.556 425.128 190.868 422.728 191.492 420.376C192.164 418.024 193.172 415.864 194.516 413.896C195.86 411.928 197.588 410.248 199.7 408.856C201.812 407.416 204.356 406.408 207.332 405.832L205.244 405.328C204.236 405.088 203.516 404.8 203.084 404.464C202.652 404.128 202.436 403.84 202.436 403.6C202.436 403.216 202.844 402.808 203.66 402.376C204.524 401.896 205.484 401.656 206.54 401.656ZM203.3 410.728C204.596 410.248 205.844 410.008 207.044 410.008C208.244 410.008 209.156 410.2 209.78 410.584C210.452 410.92 210.788 411.28 210.788 411.664C210.788 411.904 210.5 412.168 209.924 412.456C209.396 412.744 208.7 413.152 207.836 413.68C207.02 414.16 206.108 414.784 205.1 415.552C204.14 416.32 203.228 417.304 202.364 418.504C201.548 419.656 200.852 421.072 200.276 422.752C199.748 424.432 199.484 426.4 199.484 428.656C199.484 431.968 200.228 434.464 201.716 436.144C203.204 437.824 205.268 438.664 207.908 438.664C209.588 438.664 211.292 438.376 213.02 437.8C214.796 437.224 216.38 436.408 217.772 435.352C219.212 434.296 220.364 433 221.228 431.464C222.14 429.928 222.596 428.2 222.596 426.28C222.596 424.84 222.332 423.4 221.804 421.96C221.324 420.52 220.628 419.152 219.716 417.856C218.852 416.512 217.796 415.264 216.548 414.112C215.348 412.96 214.028 411.976 212.588 411.16C211.196 410.392 210.044 409.816 209.132 409.432C208.268 409 207.644 408.592 207.26 408.208C206.876 408.4 206.324 408.64 205.604 408.928C204.932 409.168 204.02 409.552 202.868 410.08L203.3 410.728ZM208.124 407.344C210.332 408.064 212.444 409.144 214.46 410.584C216.188 411.88 217.772 413.296 219.212 414.832C217.82 413.2 216.308 411.736 214.676 410.44C212.804 408.904 210.716 407.704 208.412 406.84L208.124 407.344ZM222.092 431.896C221.372 433.432 220.364 434.8 219.068 436C219.932 435.424 220.652 434.728 221.228 433.912C221.852 433.096 222.356 432.28 222.74 431.464C223.124 430.648 223.412 429.904 223.604 429.232C223.748 428.608 223.868 428.104 223.964 427.72C223.436 428.968 222.812 430.36 222.092 431.896ZM226.916 438.088C226.868 438.184 226.796 438.28 226.7 438.376C226.652 438.424 226.604 438.448 226.556 438.448C226.508 438.448 226.628 438.208 226.916 437.728C227.204 437.2 227.54 436.6 227.924 435.928C228.356 435.208 228.764 434.464 229.148 433.696C229.484 433.12 229.724 432.616 229.868 432.184C229.196 434.248 228.212 436.216 226.916 438.088ZM230.948 426.424C230.948 427.192 230.9 427.96 230.804 428.728C230.708 429.448 230.54 430.12 230.3 430.744C230.636 429.544 230.804 428.2 230.804 426.712C230.804 425.608 230.708 424.528 230.516 423.472C230.372 422.56 230.18 421.672 229.94 420.808C230.18 421.672 230.396 422.536 230.588 423.4C230.828 424.36 230.948 425.368 230.948 426.424ZM208.124 406.192L207.476 405.904C207.428 406 207.356 406.096 207.26 406.192C207.164 406.288 207.116 406.384 207.116 406.48C207.116 406.576 207.164 406.72 207.26 406.912C207.404 407.056 207.524 407.176 207.62 407.272L208.124 406.192ZM219.644 415.336C219.5 415.144 219.356 414.976 219.212 414.832C219.356 415.024 219.5 415.192 219.644 415.336ZM229.868 432.184C229.916 432.088 229.94 431.992 229.94 431.896C229.94 431.992 229.916 432.088 229.868 432.184ZM230.012 431.752C229.964 431.8 229.94 431.848 229.94 431.896C229.94 431.848 229.964 431.8 230.012 431.752ZM244.983 445.072C243.879 440.752 242.727 436.576 241.527 432.544C240.327 428.464 239.079 424.36 237.783 420.232C237.159 418.312 236.631 416.44 236.199 414.616C235.767 412.744 235.143 410.872 234.327 409C234.663 408.904 234.927 408.736 235.119 408.496C235.359 408.208 235.647 408.064 235.983 408.064C236.223 408.064 236.439 408.208 236.631 408.496C236.871 408.784 237.063 409.12 237.207 409.504C237.399 409.84 237.567 410.2 237.711 410.584C237.855 410.968 237.951 411.232 237.999 411.376L238.863 411.16C238.671 410.392 238.503 409.648 238.359 408.928C238.263 408.16 238.215 407.392 238.215 406.624C238.215 406.336 238.239 405.904 238.287 405.328C238.383 404.704 238.671 404.392 239.151 404.392C239.871 404.392 240.663 405.064 241.527 406.408C242.391 407.704 243.231 409.384 244.047 411.448C244.911 413.512 245.751 415.792 246.567 418.288C247.383 420.736 248.127 423.112 248.799 425.416C249.471 427.72 250.047 429.784 250.527 431.608C251.055 433.432 251.415 434.728 251.607 435.496C252.855 433.912 253.959 432.256 254.919 430.528C255.879 428.8 256.815 427.072 257.727 425.344C258.687 423.568 259.671 421.84 260.679 420.16C261.735 418.432 262.959 416.8 264.351 415.264C264.687 414.88 265.191 414.256 265.863 413.392C266.583 412.528 267.327 411.664 268.095 410.8C268.911 409.888 269.703 409.096 270.471 408.424C271.239 407.752 271.863 407.416 272.343 407.416C272.583 407.416 272.799 407.584 272.991 407.92C271.167 409.744 269.343 411.568 267.519 413.392C265.743 415.216 264.183 417.28 262.839 419.584C264.231 417.376 265.815 415.384 267.591 413.608C269.415 411.784 271.287 410.032 273.207 408.352L273.855 409.216C274.143 408.784 274.671 408.304 275.439 407.776C276.207 407.248 276.855 406.984 277.383 406.984C277.767 406.984 278.055 407.104 278.247 407.344C278.439 407.584 278.535 407.896 278.535 408.28C278.535 408.616 278.487 409.048 278.391 409.576C278.295 410.104 278.151 410.488 277.959 410.728C277.719 411.064 277.431 411.352 277.095 411.592C275.511 413.032 273.999 414.376 272.559 415.624C271.167 416.824 269.847 418.312 268.599 420.088L269.103 419.584C270.399 418.048 271.695 416.68 272.991 415.48C274.335 414.28 275.847 413.128 277.527 412.024C276.615 413.56 275.559 414.88 274.359 415.984C273.207 417.04 272.031 418.24 270.831 419.584C270.255 420.256 269.751 421 269.319 421.816C268.935 422.584 268.431 423.28 267.807 423.904L267.159 423.688C266.247 425.656 265.287 427.672 264.279 429.736C263.319 431.752 262.263 433.744 261.111 435.712C259.959 437.632 258.663 439.456 257.223 441.184C255.831 442.912 254.247 444.424 252.471 445.72C252.327 446.008 252.015 446.248 251.535 446.44C251.103 446.68 250.767 446.872 250.527 447.016L245.991 445C245.655 443.896 245.271 442.72 244.839 441.472C244.455 440.224 244.071 439.048 243.687 437.944L243.327 438.016L245.271 445C245.319 445.048 245.391 445.096 245.487 445.144C245.631 445.192 245.871 445.288 246.207 445.432C246.591 445.624 247.143 445.864 247.863 446.152C248.631 446.488 249.663 446.92 250.959 447.448C252.879 446.296 254.511 445.048 255.855 443.704C257.151 442.408 258.399 440.872 259.599 439.096C259.071 440.008 258.519 440.848 257.943 441.616C257.367 442.432 256.743 443.2 256.071 443.92C255.399 444.64 254.655 445.312 253.839 445.936C253.023 446.608 252.087 447.232 251.031 447.808L244.983 445.072ZM255.063 442.264C257.367 439.672 259.335 436.936 260.967 434.056C262.647 431.176 264.135 428.224 265.431 425.2V425.056C264.615 426.496 263.799 427.984 262.983 429.52C262.215 431.008 261.423 432.496 260.607 433.984C259.791 435.424 258.927 436.864 258.015 438.304C257.103 439.696 256.119 441.016 255.063 442.264ZM258.375 427.648C259.815 424.912 261.303 422.224 262.839 419.584C261.159 422.176 259.623 424.816 258.231 427.504C256.839 430.144 255.327 432.712 253.695 435.208C255.423 432.808 256.983 430.288 258.375 427.648ZM268.311 420.52C267.831 421.192 267.375 421.864 266.943 422.536C266.559 423.16 266.175 423.784 265.791 424.408C266.223 423.784 266.727 423.184 267.303 422.608C267.879 421.984 268.215 421.288 268.311 420.52ZM259.959 438.592C260.727 437.344 261.447 436.072 262.119 434.776C262.167 434.728 262.215 434.68 262.263 434.632C262.215 434.68 262.191 434.728 262.191 434.776C261.519 436.072 260.775 437.344 259.959 438.592ZM263.199 432.832L262.623 433.912L263.199 432.832ZM263.775 431.68C263.583 432.064 263.391 432.448 263.199 432.832C263.391 432.448 263.583 432.064 263.775 431.68ZM262.551 433.984C262.503 434.128 262.431 434.272 262.335 434.416C262.431 434.272 262.503 434.128 262.551 433.984ZM259.815 438.808C259.719 438.904 259.647 439 259.599 439.096C259.647 439 259.719 438.904 259.815 438.808Z" fill="white"/>
</svg>
