<svg width="368" height="473" viewBox="0 0 368 473" fill="none" xmlns="http://www.w3.org/2000/svg">
<path d="M1 40C1 18 19 0 41 0H278L367 89V432C367 454 349 472 327 472H41C19 472 1 454 1 432V40Z" fill="#CFD2FC"/>
<path d="M278 0L367 89H308C291 89 278 76 278 59V0Z" fill="#8690FA"/>
<path d="M268 160H100C88.9543 160 80 168.954 80 180V270C80 281.046 88.9543 290 100 290H268C279.046 290 288 281.046 288 270V180C288 168.954 279.046 160 268 160Z" fill="#8690FA"/>
<path d="M168 200L218 225L168 250V200Z" fill="white"/>
<path d="M1 437.761V348H367V437.299L366.5 441L365 447.015L363 451.642L360 456.269L356.5 460.433L351.5 464.134L346.5 467.373L341.5 469.687L335 471.537L330 472H39L35 471.537L31 471.075L26.5 469.687L23.5 468.299L19 465.985L15 463.209L12 460.433L9.5 457.657L7 454.418L5 451.179L3 447.015L2 443.313L1 437.761Z" fill="#5153FF" stroke="#5153FF"/>
<path d="M66.4328 442.48C67.6328 441.76 68.7368 440.824 69.7448 439.672C70.7528 438.52 71.8088 437.392 72.9128 436.288C72.2408 436.72 71.6408 437.2 71.1128 437.728L69.6008 439.24C69.0728 439.768 68.4968 440.296 67.8728 440.824C67.2968 441.304 66.6008 441.736 65.7848 442.12C65.5448 441.88 65.3528 441.688 65.2088 441.544C65.1128 441.4 65.0648 441.208 65.0648 440.968C65.0648 440.728 65.0888 440.584 65.1368 440.536L67.4408 438.232C67.4408 438.424 67.5608 438.592 67.8008 438.736C68.0408 438.832 68.2328 438.88 68.3768 438.88C68.6168 438.16 68.9768 437.584 69.4568 437.152C69.9368 436.72 70.4408 436.336 70.9688 436C71.4968 435.616 72.0008 435.208 72.4808 434.776C72.9608 434.344 73.3208 433.768 73.5608 433.048C73.5128 433 73.4888 432.952 73.4888 432.904C73.3928 432.808 73.3208 432.76 73.2728 432.76L67.8728 437.8C68.2088 437.416 68.7608 436.768 69.5288 435.856C70.2968 434.944 71.0888 434.008 71.9048 433.048C72.7208 432.088 73.4648 431.248 74.1368 430.528C74.8568 429.808 75.3128 429.448 75.5048 429.448L75.5768 429.52C75.9608 429.664 76.4888 429.808 77.1608 429.952C77.8808 430.048 78.4088 430.096 78.7448 430.096C79.0808 430.096 79.4648 430.024 79.8968 429.88C79.8968 430.168 80.0408 430.504 80.3288 430.888C80.6168 431.272 80.9288 431.656 81.2648 432.04C81.6008 432.424 81.9128 432.808 82.2008 433.192C82.4888 433.528 82.6328 433.792 82.6328 433.984C82.6328 434.32 82.5128 434.488 82.2728 434.488H82.0568C82.0568 434.92 82.0808 435.688 82.1288 436.792C82.2248 437.848 82.2728 439.072 82.2728 440.464C82.2728 441.232 82.0328 441.904 81.5528 442.48C81.0728 443.056 80.5208 443.56 79.8968 443.992C79.2728 444.424 78.6248 444.784 77.9528 445.072C77.3288 445.36 76.8488 445.576 76.5128 445.72C76.2248 445.72 76.1048 445.864 76.1528 446.152C76.2008 446.488 76.1048 446.656 75.8648 446.656H75.5048C75.3608 446.656 75.1448 446.584 74.8568 446.44C74.5688 446.344 74.2568 446.2 73.9208 446.008C73.9688 445.864 74.2088 445.504 74.6408 444.928C75.1208 444.304 75.6248 443.656 76.1528 442.984C76.6808 442.264 77.1848 441.616 77.6648 441.04C78.1448 440.416 78.4568 440.032 78.6008 439.888C78.3608 440.032 77.9768 440.392 77.4488 440.968C76.9208 441.496 76.3688 442.096 75.7928 442.768C75.2648 443.392 74.7368 443.992 74.2088 444.568C73.7288 445.096 73.4168 445.432 73.2728 445.576C72.6488 445.24 72.2168 445.072 71.9768 445.072L71.6168 445.36C71.0888 445.36 70.5128 445.24 69.8888 445C69.3128 444.808 68.7608 444.568 68.2328 444.28C67.7528 443.992 67.3208 443.704 66.9368 443.416C66.6008 443.128 66.4328 442.912 66.4328 442.768V442.48ZM111.437 429.664C112.061 431.728 112.685 433.816 113.309 435.928C113.981 438.04 114.773 440.008 115.685 441.832C116.645 443.608 117.821 445.144 119.213 446.44C120.653 447.784 122.453 448.672 124.613 449.104C122.549 448.96 120.773 448.288 119.285 447.088C117.845 445.888 116.621 444.424 115.613 442.696C114.605 440.92 113.789 439.024 113.165 437.008C112.541 434.992 112.085 433.144 111.797 431.464C111.653 432.616 111.413 433.888 111.077 435.28C110.789 436.672 110.405 438.064 109.925 439.456C109.445 440.8 108.869 442.096 108.197 443.344C107.573 444.544 106.829 445.576 105.965 446.44L99.8453 447.52C97.7813 446.368 95.9573 444.736 94.3733 442.624C92.8373 440.464 91.4693 438.04 90.2693 435.352C89.1173 432.616 88.1333 429.712 87.3173 426.64C86.5493 423.52 85.9013 420.448 85.3733 417.424C84.8453 414.4 84.4373 411.496 84.1493 408.712C83.9093 405.88 83.7653 403.408 83.7173 401.296L85.5173 401.08C85.7573 401.224 85.9493 401.584 86.0933 402.16C86.2853 402.688 86.4293 403.288 86.5253 403.96C86.6213 404.632 86.6933 405.28 86.7413 405.904C86.7893 406.528 86.8133 406.96 86.8133 407.2L87.4613 406.984C87.4613 406.6 87.4853 405.904 87.5333 404.896C87.5813 403.84 87.7013 402.784 87.8933 401.728C88.0853 400.624 88.3493 399.664 88.6853 398.848C89.0693 398.032 89.5493 397.624 90.1253 397.624C90.4133 397.624 90.7013 398.368 90.9893 399.856C91.3253 401.344 91.7093 403.288 92.1413 405.688C92.5733 408.04 93.0533 410.728 93.5813 413.752C94.1093 416.728 94.7333 419.728 95.4533 422.752C96.2213 425.728 97.0853 428.608 98.0453 431.392C99.0053 434.128 100.109 436.432 101.357 438.304C101.789 436.192 102.341 433.912 103.013 431.464C103.733 428.968 104.429 426.664 105.101 424.552C105.773 422.392 106.349 420.592 106.829 419.152C107.357 417.712 107.669 416.968 107.765 416.92L115.469 416.704C116.093 417.136 116.669 417.928 117.197 419.08C117.725 420.184 118.229 421.48 118.709 422.968C119.189 424.456 119.645 426.064 120.077 427.792C120.509 429.472 120.965 431.128 121.445 432.76C121.925 434.344 122.429 435.832 122.957 437.224C123.485 438.568 124.061 439.648 124.685 440.464L125.333 440.536C126.053 440.536 126.773 440.08 127.493 439.168C128.261 438.256 129.005 437.104 129.725 435.712C130.493 434.272 131.213 432.712 131.885 431.032C132.557 429.304 133.157 427.648 133.685 426.064C134.261 424.432 134.741 422.968 135.125 421.672C135.509 420.328 135.797 419.344 135.989 418.72C136.181 418 136.373 417.016 136.565 415.768C136.805 414.472 137.045 413.08 137.285 411.592C137.525 410.104 137.765 408.616 138.005 407.128C138.293 405.592 138.581 404.224 138.869 403.024C139.157 401.776 139.469 400.768 139.805 400C140.141 399.184 140.501 398.776 140.885 398.776L141.245 398.848C139.805 408.112 137.741 417.232 135.053 426.208C136.541 421.792 137.765 417.328 138.725 412.816C139.733 408.304 140.717 403.792 141.677 399.28L142.253 399.856C142.301 399.52 142.445 398.92 142.685 398.056C142.925 397.144 143.189 396.232 143.477 395.32C143.813 394.36 144.173 393.52 144.557 392.8C144.941 392.08 145.325 391.72 145.709 391.72C145.997 391.72 146.237 391.96 146.429 392.44C146.669 392.92 146.837 393.472 146.933 394.096C147.029 394.72 147.101 395.344 147.149 395.968C147.197 396.544 147.221 396.928 147.221 397.12C147.221 397.264 147.149 397.576 147.005 398.056C146.861 398.536 146.765 398.872 146.717 399.064C146.333 400.696 145.853 402.952 145.277 405.832C144.749 408.712 144.101 411.88 143.333 415.336C142.565 418.744 141.653 422.224 140.597 425.776C139.637 429.184 138.533 432.328 137.285 435.208C138.581 432.328 139.757 429.208 140.813 425.848C141.917 422.296 142.877 418.84 143.693 415.48C144.557 412.072 145.301 408.928 145.925 406.048C146.549 403.168 147.053 400.912 147.437 399.28C147.437 401.728 147.245 404.272 146.861 406.912C146.477 409.504 145.973 412.12 145.349 414.76C144.725 417.4 144.029 420.016 143.261 422.608C142.493 425.2 141.749 427.648 141.029 429.952L139.949 430.384C139.517 431.92 138.917 433.744 138.149 435.856C137.381 437.968 136.397 439.984 135.197 441.904C134.045 443.776 132.677 445.36 131.093 446.656C129.557 448 127.805 448.672 125.837 448.672C124.349 448.672 123.005 448.336 121.805 447.664C120.653 447.04 119.597 446.176 118.637 445.072C117.725 444.016 116.909 442.792 116.189 441.4C115.517 440.008 114.893 438.568 114.317 437.08C113.789 435.592 113.309 434.104 112.877 432.616C112.445 431.08 112.061 429.688 111.725 428.44C111.629 428.776 111.533 429.184 111.437 429.664ZM125.333 447.448C126.821 447.448 128.213 446.968 129.509 446.008C130.853 445.096 132.101 443.848 133.253 442.264C132.005 443.512 130.757 444.592 129.509 445.504C128.261 446.416 126.869 446.872 125.333 446.872C124.085 446.872 122.933 446.512 121.877 445.792C120.869 445.12 119.933 444.232 119.069 443.128C118.253 441.976 117.509 440.704 116.837 439.312C116.213 437.872 115.637 436.456 115.109 435.064C114.581 433.672 114.125 432.352 113.741 431.104C113.357 429.808 113.021 428.728 112.733 427.864C112.925 429.016 113.189 430.312 113.525 431.752C113.909 433.144 114.341 434.56 114.821 436C115.301 437.44 115.853 438.856 116.477 440.248C117.149 441.592 117.917 442.816 118.781 443.92C119.645 444.976 120.605 445.816 121.661 446.44C122.765 447.112 123.989 447.448 125.333 447.448ZM126.125 449.032C127.757 448.744 129.245 448.12 130.589 447.16C131.933 446.248 133.133 445.144 134.189 443.848C135.293 442.552 136.229 441.136 136.997 439.6C137.429 438.784 137.837 437.968 138.221 437.152C137.885 438.016 137.501 438.904 137.069 439.816C136.301 441.448 135.389 442.96 134.333 444.352C133.277 445.696 132.053 446.8 130.661 447.664C129.317 448.576 127.805 449.032 126.125 449.032ZM124.613 441.904C124.037 441.76 123.461 441.304 122.885 440.536C122.357 439.768 121.949 438.976 121.661 438.16C121.805 438.592 121.973 439.048 122.165 439.528C122.405 440.008 122.669 440.464 122.957 440.896C123.293 441.328 123.653 441.688 124.037 441.976C124.421 442.216 124.853 442.336 125.333 442.336C126.101 442.336 126.845 442 127.565 441.328C128.333 440.608 129.029 439.744 129.653 438.736C130.325 437.728 130.925 436.672 131.453 435.568C131.981 434.416 132.437 433.384 132.821 432.472C132.437 433.336 131.957 434.344 131.381 435.496C130.853 436.6 130.253 437.632 129.581 438.592C128.957 439.552 128.261 440.368 127.493 441.04C126.773 441.712 126.053 442.048 125.333 442.048C125.141 442.048 124.901 442 124.613 441.904ZM111.293 432.976C111.341 432.64 111.389 432.328 111.437 432.04C111.485 431.704 111.557 431.368 111.653 431.032L111.365 430.168C111.269 430.648 111.173 431.128 111.077 431.608C111.029 432.04 110.957 432.496 110.861 432.976H111.293ZM138.509 436.432C138.413 436.672 138.317 436.912 138.221 437.152C138.317 436.864 138.413 436.624 138.509 436.432ZM138.797 435.784C138.701 436.024 138.605 436.24 138.509 436.432C138.605 436.192 138.701 435.976 138.797 435.784ZM139.013 435.28C138.917 435.424 138.845 435.592 138.797 435.784C138.845 435.592 138.917 435.424 139.013 435.28ZM181.407 421.6C179.535 420.928 177.591 420.496 175.575 420.304C173.655 420.064 171.687 419.848 169.671 419.656C171.495 419.944 173.367 420.208 175.287 420.448C177.303 420.688 179.199 421.216 180.975 422.032C180.783 422.224 180.591 422.392 180.399 422.536C180.207 422.68 180.015 422.752 179.823 422.752C179.151 422.752 178.503 422.68 177.879 422.536C177.255 422.344 176.583 422.248 175.863 422.248V421.384C175.623 421.432 175.287 421.456 174.855 421.456C173.655 421.456 172.479 421.288 171.327 420.952C170.175 420.616 168.999 420.448 167.799 420.448C167.175 420.448 166.575 420.52 165.999 420.664V420.952C167.535 421.048 169.095 421.216 170.679 421.456C172.311 421.648 173.967 421.912 175.647 422.248C174.111 422.008 172.455 421.792 170.679 421.6C168.951 421.408 167.319 421.312 165.783 421.312C165.159 421.312 164.559 421.336 163.983 421.384C163.455 421.384 162.927 421.408 162.399 421.456C162.399 422.464 162.423 423.64 162.471 424.984C162.519 426.328 162.615 427.648 162.759 428.944C162.903 430.192 163.071 431.296 163.263 432.256C163.455 433.216 163.695 433.84 163.983 434.128L164.631 435.424C165.207 437.2 167.127 438.088 170.391 438.088C171.111 438.088 171.975 437.992 172.983 437.8C173.991 437.608 174.999 437.392 176.007 437.152C177.063 436.864 178.047 436.624 178.959 436.432C179.919 436.24 180.735 436.144 181.407 436.144C182.079 436.144 182.463 436.24 182.559 436.432C182.655 436.624 182.703 436.888 182.703 437.224C180.687 437.464 178.743 437.824 176.871 438.304C175.239 438.736 173.655 439.072 172.119 439.312C173.655 439.072 175.215 438.784 176.799 438.448C178.671 438.016 180.567 437.68 182.487 437.44C182.391 437.728 182.343 437.92 182.343 438.016C182.343 438.304 182.463 438.544 182.703 438.736L183.711 438.592C183.999 438.544 184.287 438.52 184.575 438.52C184.863 438.472 185.127 438.4 185.367 438.304C186.231 438.544 186.831 438.808 187.167 439.096C187.551 439.384 187.743 439.696 187.743 440.032C187.743 440.656 187.431 441.088 186.807 441.328C186.231 441.568 185.679 441.952 185.151 442.48H184.863C183.471 442.48 182.127 442.6 180.831 442.84C179.535 443.032 178.239 443.248 176.943 443.488C175.695 443.728 174.399 443.968 173.055 444.208C171.759 444.4 170.415 444.496 169.023 444.496H168.015H167.583C168.495 444.592 169.479 444.64 170.535 444.64C171.879 444.64 173.127 444.568 174.279 444.424C175.479 444.28 176.631 444.112 177.735 443.92C178.839 443.728 179.895 443.56 180.903 443.416C181.959 443.272 183.015 443.2 184.071 443.2C183.303 443.584 182.367 443.968 181.263 444.352C180.159 444.688 178.935 444.976 177.591 445.216C176.247 445.504 174.855 445.72 173.415 445.864C171.975 446.056 170.559 446.152 169.167 446.152C168.207 446.152 167.271 446.104 166.359 446.008C165.447 445.912 164.463 445.6 163.407 445.072L163.335 444.28C162.663 444.04 161.943 443.608 161.175 442.984C160.455 442.312 159.783 441.616 159.159 440.896C158.535 440.176 158.007 439.504 157.575 438.88C157.143 438.256 156.927 437.848 156.927 437.656L156.711 437.008C156.279 436.096 155.919 435.088 155.631 433.984C155.391 432.88 155.199 431.776 155.055 430.672C154.911 429.52 154.791 428.392 154.695 427.288C154.599 426.184 154.527 425.152 154.479 424.192C154.383 422.608 154.311 421.024 154.263 419.44C154.215 417.808 154.191 416.176 154.191 414.544C154.191 412.912 154.191 411.28 154.191 409.648C154.239 407.968 154.263 406.288 154.263 404.608H154.047C153.807 406.432 153.663 408.184 153.615 409.864C153.615 411.544 153.615 413.224 153.615 414.904V417.712C153.615 421.072 153.783 424.576 154.119 428.224C154.503 431.872 155.439 435.424 156.927 438.88C155.823 437.008 155.127 435.16 154.839 433.336C154.551 431.464 154.287 429.736 154.047 428.152C153.759 426.088 153.543 424.096 153.399 422.176C153.303 420.256 153.255 418.288 153.255 416.272V414.76C153.255 411.976 153.327 409.144 153.471 406.264C153.615 403.384 154.047 400.336 154.767 397.12C154.479 397.12 154.335 396.976 154.335 396.688C154.335 396.4 154.479 395.992 154.767 395.464C155.103 394.936 155.511 394.432 155.991 393.952C156.471 393.424 156.999 392.992 157.575 392.656C158.199 392.272 158.799 392.08 159.375 392.08H176.511C178.287 392.416 180.015 392.704 181.695 392.944C183.423 393.136 185.223 393.28 187.095 393.376L187.023 395.032C187.023 395.32 186.879 395.56 186.591 395.752C186.351 395.896 185.775 395.968 184.863 395.968C184.575 395.968 184.215 395.968 183.783 395.968C183.399 395.92 182.967 395.872 182.487 395.824V396.472C184.455 396.904 185.991 397.432 187.095 398.056C188.247 398.68 188.823 399.28 188.823 399.856C188.823 400.528 188.175 400.936 186.879 401.08C185.631 401.224 183.951 401.296 181.839 401.296C179.151 401.296 176.271 401.296 173.199 401.296C170.175 401.248 167.247 401.104 164.415 400.864H163.191C162.951 402.688 162.783 404.56 162.687 406.48C162.591 408.4 162.519 410.368 162.471 412.384C163.239 412.384 163.983 412.36 164.703 412.312C165.471 412.216 166.263 412.168 167.079 412.168C167.751 412.168 168.519 412.24 169.383 412.384C170.295 412.48 171.231 412.624 172.191 412.816C173.199 413.008 174.183 413.248 175.143 413.536C176.151 413.776 177.063 414.04 177.879 414.328C178.023 414.376 178.191 414.4 178.383 414.4H179.607C180.231 414.4 180.639 414.496 180.831 414.688C181.071 414.88 181.191 415.264 181.191 415.84C180.375 415.84 179.607 415.792 178.887 415.696C178.167 415.6 177.471 415.504 176.799 415.408C177.471 415.648 178.167 415.84 178.887 415.984C179.607 416.08 180.375 416.176 181.191 416.272C181.095 416.512 181.023 416.728 180.975 416.92C180.975 417.112 180.975 417.28 180.975 417.424C181.455 417.52 181.767 417.76 181.911 418.144C182.103 418.48 182.199 418.864 182.199 419.296C182.199 419.92 182.055 420.424 181.767 420.808C181.527 421.144 181.407 421.408 181.407 421.6ZM156.063 429.736C156.255 430.888 156.471 432.136 156.711 433.48C156.999 434.776 157.407 436.072 157.935 437.368C158.511 438.616 159.279 439.792 160.239 440.896C161.007 441.808 162.015 442.576 163.263 443.2C161.823 442.432 160.647 441.376 159.735 440.032C158.679 438.4 157.839 436.576 157.215 434.56C156.639 432.544 156.207 430.408 155.919 428.152C155.679 425.896 155.487 423.736 155.343 421.672C155.391 422.968 155.463 424.288 155.559 425.632C155.655 426.976 155.823 428.344 156.063 429.736ZM173.703 415.048C174.519 415.192 175.383 415.312 176.295 415.408C175.431 415.168 174.615 415 173.847 414.904C173.079 414.76 172.311 414.592 171.543 414.4C172.167 414.688 172.887 414.904 173.703 415.048ZM161.895 444.568C161.271 444.28 160.719 443.944 160.239 443.56C159.903 443.272 159.591 442.984 159.303 442.696C159.591 442.984 159.927 443.248 160.311 443.488C160.839 443.872 161.367 444.232 161.895 444.568ZM164.055 443.56L163.407 443.272L164.055 443.56ZM201.149 438.304V436.072L202.085 435.496C201.941 434.68 201.845 433.888 201.797 433.12C201.749 432.304 201.725 431.488 201.725 430.672C201.725 429.76 201.725 428.872 201.725 428.008C201.773 427.096 201.797 426.16 201.797 425.2C201.797 424.192 201.749 423.184 201.653 422.176C201.557 421.168 201.389 420.16 201.149 419.152H200.717C200.765 421.696 200.837 424.192 200.933 426.64C201.077 429.088 201.149 431.584 201.149 434.128C200.909 430.48 200.621 426.832 200.285 423.184C199.997 419.536 199.853 415.84 199.853 412.096C199.853 410.992 199.901 409.888 199.997 408.784C200.141 407.632 200.285 406.504 200.429 405.4L195.677 406.624L195.749 406.408C195.653 406.264 195.509 406 195.317 405.616C195.173 405.232 195.101 404.992 195.101 404.896C195.101 404.656 195.341 404.416 195.821 404.176C196.349 403.888 196.925 403.648 197.549 403.456C198.221 403.264 198.845 403.096 199.421 402.952C200.045 402.808 200.477 402.712 200.717 402.664L200.501 401.8C200.117 401.896 199.325 402.016 198.125 402.16C196.973 402.256 195.797 402.304 194.597 402.304C193.637 402.304 192.797 402.232 192.077 402.088C191.357 401.944 190.997 401.632 190.997 401.152C190.997 400.624 191.477 400.096 192.437 399.568C193.397 399.04 194.621 398.56 196.109 398.128C197.645 397.648 199.325 397.216 201.149 396.832C202.973 396.448 204.725 396.112 206.405 395.824C208.085 395.536 209.597 395.32 210.941 395.176C212.285 395.032 213.221 394.96 213.749 394.96C216.197 394.96 218.525 395.272 220.733 395.896C222.989 396.472 224.957 397.408 226.637 398.704C228.317 399.952 229.637 401.56 230.597 403.528C231.605 405.496 232.109 407.824 232.109 410.512C232.109 411.616 231.941 412.768 231.605 413.968C231.269 415.12 230.741 416.248 230.021 417.352C229.349 418.408 228.461 419.368 227.357 420.232C226.301 421.096 225.029 421.72 223.541 422.104C226.037 422.44 228.173 423.016 229.949 423.832C231.773 424.648 233.237 425.632 234.341 426.784C235.493 427.936 236.333 429.232 236.861 430.672C237.389 432.112 237.653 433.648 237.653 435.28C237.653 437.392 237.221 439.192 236.357 440.68C235.541 442.168 234.437 443.416 233.045 444.424C231.653 445.432 230.069 446.2 228.293 446.728C226.517 447.304 224.669 447.736 222.749 448.024C220.829 448.312 218.933 448.48 217.061 448.528C215.189 448.624 213.485 448.672 211.949 448.672C211.565 448.672 210.821 448.648 209.717 448.6C208.661 448.552 207.557 448.456 206.405 448.312C205.253 448.168 204.221 447.952 203.309 447.664C202.445 447.424 202.013 447.088 202.013 446.656L202.085 446.296C204.101 446.632 206.117 446.896 208.133 447.088C210.149 447.328 212.165 447.448 214.181 447.448C215.717 447.448 217.229 447.352 218.717 447.16C220.205 446.968 221.693 446.728 223.181 446.44C220.493 446.92 217.685 447.16 214.757 447.16C212.693 447.16 210.629 447.064 208.565 446.872C206.549 446.68 204.533 446.416 202.517 446.08L202.877 445.216L202.733 444.712C202.589 444.76 202.373 444.784 202.085 444.784C201.605 444.784 201.053 444.688 200.429 444.496C199.805 444.304 199.205 444.064 198.629 443.776C198.101 443.488 197.645 443.152 197.261 442.768C196.877 442.384 196.685 442 196.685 441.616C196.685 441.376 196.877 441.184 197.261 441.04C197.645 440.896 198.077 440.8 198.557 440.752C199.085 440.656 199.589 440.584 200.069 440.536C200.549 440.488 200.885 440.44 201.077 440.392L201.149 438.304ZM208.349 404.176C208.445 404.464 208.541 405.088 208.637 406.048C208.781 406.96 208.901 408.04 208.997 409.288C209.141 410.536 209.261 411.88 209.357 413.32C209.453 414.76 209.525 416.152 209.573 417.496C209.669 418.792 209.741 419.968 209.789 421.024C209.837 422.032 209.861 422.752 209.861 423.184C209.861 425.728 209.765 428.272 209.573 430.816C209.381 433.312 209.285 435.832 209.285 438.376C209.285 439.336 209.597 439.936 210.221 440.176C210.893 440.416 211.613 440.536 212.381 440.536C214.685 440.536 216.965 440.464 219.221 440.32C221.477 440.128 223.685 439.624 225.845 438.808L226.061 439.672C227.021 439.192 227.861 438.616 228.581 437.944C229.349 437.224 229.733 436.288 229.733 435.136C229.733 433.84 229.325 432.736 228.509 431.824C227.693 430.864 226.685 430.096 225.485 429.52C224.333 428.944 223.085 428.512 221.741 428.224C220.445 427.936 219.293 427.792 218.285 427.792C218.189 427.792 217.997 427.864 217.709 428.008C217.421 428.104 217.205 428.176 217.061 428.224C217.733 428.272 218.573 428.392 219.581 428.584C220.589 428.776 221.621 429.04 222.677 429.376C223.733 429.664 224.741 430.048 225.701 430.528C226.661 431.008 227.453 431.536 228.077 432.112C227.165 431.392 225.917 430.792 224.333 430.312C222.701 429.832 221.021 429.448 219.293 429.16C217.613 428.872 216.053 428.656 214.613 428.512C213.173 428.32 212.189 428.176 211.661 428.08L211.301 420.088H211.445C212.693 420.088 213.989 419.872 215.333 419.44C216.725 418.96 217.997 418.312 219.149 417.496C220.301 416.632 221.261 415.624 222.029 414.472C222.797 413.272 223.181 411.976 223.181 410.584C223.181 409.24 222.893 408.136 222.317 407.272C221.741 406.408 220.973 405.736 220.013 405.256C219.101 404.728 218.069 404.392 216.917 404.248C215.765 404.056 214.637 403.96 213.533 403.96C212.669 403.96 211.805 404.008 210.941 404.104C210.077 404.152 209.213 404.176 208.349 404.176ZM209.357 442.048C210.173 442.144 210.941 442.216 211.661 442.264C212.429 442.312 213.221 442.336 214.037 442.336C214.805 442.336 215.741 442.312 216.845 442.264C217.997 442.168 219.197 442.024 220.445 441.832C221.741 441.64 223.013 441.376 224.261 441.04C225.557 440.704 226.709 440.272 227.717 439.744C228.725 439.216 229.541 438.568 230.165 437.8C230.837 437.032 231.173 436.12 231.173 435.064C231.173 434.488 231.077 433.936 230.885 433.408C230.693 432.88 230.429 432.376 230.093 431.896C230.333 432.28 230.525 432.712 230.669 433.192C230.861 433.624 230.957 434.08 230.957 434.56C230.957 436.192 230.405 437.488 229.301 438.448C228.197 439.408 226.853 440.152 225.269 440.68C223.733 441.16 222.125 441.472 220.445 441.616C218.765 441.76 217.325 441.832 216.125 441.832C215.021 441.832 213.893 441.808 212.741 441.76C211.637 441.664 210.533 441.568 209.429 441.472L209.357 442.048ZM202.877 440.896C202.973 439.216 203.021 437.512 203.021 435.784V430.672C203.021 429.712 202.997 428.776 202.949 427.864C202.901 427 202.829 426.136 202.733 425.272C202.733 426.52 202.733 427.768 202.733 429.016C202.781 430.312 202.805 431.608 202.805 432.904C202.805 434.248 202.781 435.568 202.733 436.864C202.685 438.16 202.565 439.456 202.373 440.752L202.877 440.896ZM216.485 420.304C217.349 419.776 218.165 419.224 218.933 418.648C219.749 418.072 220.493 417.4 221.165 416.632C220.925 416.632 220.805 416.536 220.805 416.344C219.317 417.976 217.469 419.248 215.261 420.16L216.485 420.304ZM220.229 427C221.669 427.24 223.205 427.696 224.837 428.368C226.229 428.944 227.477 429.616 228.581 430.384C227.525 429.52 226.277 428.776 224.837 428.152C223.253 427.384 221.741 427 220.301 427H220.229ZM203.813 405.76L204.317 404.608L203.165 404.752C203.165 404.848 203.165 404.944 203.165 405.04C203.213 405.088 203.237 405.16 203.237 405.256C203.237 405.352 203.213 405.448 203.165 405.544C203.165 405.592 203.165 405.664 203.165 405.76H203.813ZM235.421 438.664C235.901 437.416 236.141 436.24 236.141 435.136V434.344C236.141 434.056 236.117 433.792 236.069 433.552C236.069 435.088 235.901 436.528 235.565 437.872C235.277 439.168 234.629 440.392 233.621 441.544C234.389 440.776 234.989 439.816 235.421 438.664ZM208.421 426.856C208.229 427.768 208.109 428.68 208.061 429.592C208.013 430.36 207.989 431.152 207.989 431.968C208.037 431.2 208.109 430.432 208.205 429.664C208.301 428.752 208.373 427.816 208.421 426.856ZM233.477 441.688C232.565 442.648 231.557 443.416 230.453 443.992C229.349 444.568 228.197 445.096 226.997 445.576C228.245 445.144 229.421 444.64 230.525 444.064C231.629 443.488 232.613 442.696 233.477 441.688ZM231.245 425.56C231.677 425.944 232.085 426.328 232.469 426.712L233.477 427.72C233.189 427.288 232.877 426.904 232.541 426.568C232.205 426.184 231.773 425.848 231.245 425.56ZM207.989 440.104V437.944C207.941 438.328 207.893 438.688 207.845 439.024C207.845 439.36 207.845 439.72 207.845 440.104H207.989ZM228.221 432.256C228.989 432.88 229.373 433.624 229.373 434.488V434.632C229.229 433.768 228.845 432.976 228.221 432.256ZM228.005 437.584C227.573 438.016 227.045 438.352 226.421 438.592L228.005 437.584ZM207.701 441.832H207.989V441.328H207.701V441.832ZM228.869 436.36C228.821 436.36 228.797 436.312 228.797 436.216C228.797 436.12 228.821 436 228.869 435.856C228.965 435.664 229.061 435.52 229.157 435.424L228.869 436.36ZM229.373 435.064C229.373 435.112 229.325 435.184 229.229 435.28L229.373 434.992V435.064ZM266.416 418.216L266.272 418C266.272 417.424 266.152 416.8 265.912 416.128C265.72 415.456 265.48 414.784 265.192 414.112C264.904 413.44 264.568 412.792 264.184 412.168C263.848 411.496 263.536 410.872 263.248 410.296L262.744 410.008C263.368 411.496 264.016 412.84 264.688 414.04C265.36 415.24 265.696 416.512 265.696 417.856L266.056 418.288L265.408 418V417.568C264.544 415.888 263.704 414.064 262.888 412.096C262.12 410.08 261.328 408.232 260.512 406.552C260.032 409.768 259.432 412.984 258.712 416.2C257.992 419.416 257.08 422.536 255.976 425.56C255.016 428.152 253.864 430.648 252.52 433.048C251.176 435.4 250.048 437.896 249.136 440.536L248.56 440.104L247.768 440.248C247.336 440.152 247.12 439.864 247.12 439.384C247.12 439 247.192 438.544 247.336 438.016C247.48 437.44 247.648 436.864 247.84 436.288C248.08 435.712 248.32 435.16 248.56 434.632C248.8 434.056 248.992 433.6 249.136 433.264L248.488 433.048C248.344 433.336 247.984 433.984 247.408 434.992C246.88 436 246.28 437.032 245.608 438.088C244.984 439.144 244.36 440.104 243.736 440.968C243.112 441.832 242.632 442.264 242.296 442.264C242.056 442.12 241.888 441.904 241.792 441.616C241.696 441.28 241.648 440.992 241.648 440.752C241.648 439.36 241.96 437.56 242.584 435.352C243.256 433.144 244.024 430.864 244.888 428.512C245.752 426.112 246.616 423.784 247.48 421.528C248.392 419.272 249.088 417.376 249.568 415.84C250 414.496 250.384 413.056 250.72 411.52C251.104 409.936 251.416 408.352 251.656 406.768C251.944 405.136 252.184 403.528 252.376 401.944C252.568 400.36 252.736 398.848 252.88 397.408C253.696 396.784 254.8 396.256 256.192 395.824C257.632 395.392 258.952 394.936 260.152 394.456C262.744 396.568 264.976 398.992 266.848 401.728C268.72 404.464 270.352 407.56 271.744 411.016C272.608 409.72 273.4 408.28 274.12 406.696C274.888 405.112 275.584 403.48 276.208 401.8C276.832 400.072 277.432 398.368 278.008 396.688C278.584 395.008 279.16 393.448 279.736 392.008C280.936 391.624 282.184 391.336 283.48 391.144C284.824 390.952 286.144 390.736 287.44 390.496C288.736 393.184 289.96 395.752 291.112 398.2C292.264 400.648 293.32 403.12 294.28 405.616C295.288 408.064 296.176 410.584 296.944 413.176C297.76 415.768 298.48 418.552 299.104 421.528C299.392 423.064 299.752 424.624 300.184 426.208C300.616 427.744 301 429.304 301.336 430.888C301.72 432.472 302.032 434.056 302.272 435.64C302.56 437.224 302.704 438.808 302.704 440.392C302.704 440.536 302.632 440.728 302.488 440.968C302.392 441.208 302.152 441.352 301.768 441.4C301 436.888 300.16 432.424 299.248 428.008C298.336 423.688 297.208 419.392 295.864 415.12C297.064 419.392 298.096 423.64 298.96 427.864C299.872 432.232 300.664 436.672 301.336 441.184L300.328 441.76C300.424 442.336 300.544 442.936 300.688 443.56C300.832 444.184 300.904 444.784 300.904 445.36C300.904 445.504 300.88 445.792 300.832 446.224C300.832 446.704 300.784 447.184 300.688 447.664C300.64 448.144 300.52 448.552 300.328 448.888C300.184 449.272 299.968 449.464 299.68 449.464C299.392 449.464 299.08 449.272 298.744 448.888C298.456 448.552 298.168 448.12 297.88 447.592C297.64 447.112 297.4 446.632 297.16 446.152C296.968 445.72 296.824 445.384 296.728 445.144C296.44 441.976 295.936 438.448 295.216 434.56C294.544 430.624 293.728 426.664 292.768 422.68C291.808 418.648 290.704 414.76 289.456 411.016C288.256 407.224 286.984 403.888 285.64 401.008L285.568 401.368C287.104 404.632 288.424 407.992 289.528 411.448C290.632 414.856 291.592 418.336 292.408 421.888C293.224 425.392 293.92 428.944 294.496 432.544C295.072 436.096 295.576 439.624 296.008 443.128C295 440.92 294.184 438.688 293.56 436.432C292.984 434.128 292.456 431.848 291.976 429.592C291.544 427.288 291.088 424.984 290.608 422.68C290.176 420.376 289.624 418.048 288.952 415.696L289.456 414.256C288.784 412.288 288.088 410.344 287.368 408.424C286.696 406.504 285.904 404.632 284.992 402.808L284.704 403.528C284.176 404.968 283.504 406.648 282.688 408.568C281.872 410.488 280.912 412.36 279.808 414.184C278.704 416.008 277.456 417.64 276.064 419.08C274.72 420.52 273.232 421.48 271.6 421.96C270.592 421.336 269.56 420.76 268.504 420.232C267.496 419.656 266.464 419.08 265.408 418.504V418.072L268.288 419.656C269.248 420.184 270.208 420.736 271.168 421.312L271.744 421.168C273.808 419.968 275.464 418.768 276.712 417.568C278.008 416.368 279.112 415.048 280.024 413.608C280.936 412.168 281.728 410.56 282.4 408.784C283.12 406.96 283.936 404.896 284.848 402.592L284.56 401.944L284.272 402.592L283.048 405.4C282.568 406.552 281.968 407.8 281.248 409.144C280.576 410.44 279.808 411.784 278.944 413.176C278.128 414.52 277.288 415.768 276.424 416.92C275.56 418.024 274.672 418.936 273.76 419.656C272.848 420.328 271.984 420.664 271.168 420.664L266.416 418.216ZM291.184 400.792C291.088 400.504 290.92 400.12 290.68 399.64C290.44 399.112 290.176 398.584 289.888 398.056C289.648 397.528 289.408 397.024 289.168 396.544C288.928 396.016 288.736 395.632 288.592 395.392L289.384 397.624L290.968 400.936L291.184 400.792ZM283.624 401.08L281.176 407.56C281.656 406.552 282.088 405.544 282.472 404.536C282.904 403.528 283.312 402.52 283.696 401.512L283.624 401.08ZM281.752 394.456L282.688 396.832L283.048 396.76L282.184 394.456H281.752ZM253.6 398.344L253.456 400.504C253.456 400.984 253.408 401.632 253.312 402.448L254.104 398.2L253.6 398.344ZM278.224 399.856L280.096 395.392H279.808L278.224 399.856ZM288.376 394.96L286.72 392.224L286.864 393.016L288.376 394.96ZM285.28 400.216L285.136 400.504L285.424 401.08L285.496 400.72L285.28 400.216Z" fill="white"/>
</svg>
