<svg width="368" height="473" viewBox="0 0 368 473" fill="none" xmlns="http://www.w3.org/2000/svg">
<path d="M1 40C1 18 19 0 41 0H278L367 89V432C367 454 349 472 327 472H41C19 472 1 454 1 432V40Z" fill="#CFD2FC"/>
<path d="M278 0L367 89H308C291 89 278 76 278 59V0Z" fill="#8690FA"/>
<path d="M268 160H100C88.9543 160 80 168.954 80 180V270C80 281.046 88.9543 290 100 290H268C279.046 290 288 281.046 288 270V180C288 168.954 279.046 160 268 160Z" fill="#8690FA"/>
<path d="M168 200L218 225L168 250V200Z" fill="white"/>
<path d="M1 437.761V348H367V437.299L366.5 441L365 447.015L363 451.642L360 456.269L356.5 460.433L351.5 464.134L346.5 467.373L341.5 469.687L335 471.537L330 472H39L35 471.537L31 471.075L26.5 469.687L23.5 468.299L19 465.985L15 463.209L12 460.433L9.5 457.657L7 454.418L5 451.179L3 447.015L2 443.313L1 437.761Z" fill="#5153FF" stroke="#5153FF"/>
<path d="M122.093 442.48C123.293 441.76 124.397 440.824 125.405 439.672C126.413 438.52 127.469 437.392 128.573 436.288C127.901 436.72 127.301 437.2 126.773 437.728L125.261 439.24C124.733 439.768 124.157 440.296 123.533 440.824C122.957 441.304 122.261 441.736 121.445 442.12C121.205 441.88 121.013 441.688 120.869 441.544C120.773 441.4 120.725 441.208 120.725 440.968C120.725 440.728 120.749 440.584 120.797 440.536L123.101 438.232C123.101 438.424 123.221 438.592 123.461 438.736C123.701 438.832 123.893 438.88 124.037 438.88C124.277 438.16 124.637 437.584 125.117 437.152C125.597 436.72 126.101 436.336 126.629 436C127.157 435.616 127.661 435.208 128.141 434.776C128.621 434.344 128.981 433.768 129.221 433.048C129.173 433 129.149 432.952 129.149 432.904C129.053 432.808 128.981 432.76 128.933 432.76L123.533 437.8C123.869 437.416 124.421 436.768 125.189 435.856C125.957 434.944 126.749 434.008 127.565 433.048C128.381 432.088 129.125 431.248 129.797 430.528C130.517 429.808 130.973 429.448 131.165 429.448L131.237 429.52C131.621 429.664 132.149 429.808 132.821 429.952C133.541 430.048 134.069 430.096 134.405 430.096C134.741 430.096 135.125 430.024 135.557 429.88C135.557 430.168 135.701 430.504 135.989 430.888C136.277 431.272 136.589 431.656 136.925 432.04C137.261 432.424 137.573 432.808 137.861 433.192C138.149 433.528 138.293 433.792 138.293 433.984C138.293 434.32 138.173 434.488 137.933 434.488H137.717C137.717 434.92 137.741 435.688 137.789 436.792C137.885 437.848 137.933 439.072 137.933 440.464C137.933 441.232 137.693 441.904 137.213 442.48C136.733 443.056 136.181 443.56 135.557 443.992C134.933 444.424 134.285 444.784 133.613 445.072C132.989 445.36 132.509 445.576 132.173 445.72C131.885 445.72 131.765 445.864 131.813 446.152C131.861 446.488 131.765 446.656 131.525 446.656H131.165C131.021 446.656 130.805 446.584 130.517 446.44C130.229 446.344 129.917 446.2 129.581 446.008C129.629 445.864 129.869 445.504 130.301 444.928C130.781 444.304 131.285 443.656 131.813 442.984C132.341 442.264 132.845 441.616 133.325 441.04C133.805 440.416 134.117 440.032 134.261 439.888C134.021 440.032 133.637 440.392 133.109 440.968C132.581 441.496 132.029 442.096 131.453 442.768C130.925 443.392 130.397 443.992 129.869 444.568C129.389 445.096 129.077 445.432 128.933 445.576C128.309 445.24 127.877 445.072 127.637 445.072L127.277 445.36C126.749 445.36 126.173 445.24 125.549 445C124.973 444.808 124.421 444.568 123.893 444.28C123.413 443.992 122.981 443.704 122.597 443.416C122.261 443.128 122.093 442.912 122.093 442.768V442.48ZM175.067 407.776C172.907 408.16 170.819 408.568 168.803 409C166.787 409.384 164.627 409.744 162.323 410.08V410.152C164.387 410.008 166.451 409.72 168.515 409.288C170.579 408.808 172.691 408.52 174.851 408.424C174.611 409 173.987 409.504 172.979 409.936C172.019 410.32 171.155 410.512 170.387 410.512C169.619 410.512 169.235 410.32 169.235 409.936C168.083 410.416 166.931 410.704 165.779 410.8L162.323 411.088V411.664C163.475 411.472 164.603 411.304 165.707 411.16C166.667 411.064 167.651 410.92 168.659 410.728C166.547 411.208 164.435 411.592 162.323 411.88V417.496C162.179 419.944 162.107 422.44 162.107 424.984C162.107 427.528 162.035 430.072 161.891 432.616C161.747 435.112 161.459 437.608 161.027 440.104C160.595 442.552 159.875 444.952 158.867 447.304C158.435 448.6 157.907 449.896 157.283 451.192C156.659 452.536 156.011 453.736 155.339 454.792C154.715 455.896 154.091 456.784 153.467 457.456C152.891 458.128 152.387 458.464 151.955 458.464C151.763 458.464 151.619 458.344 151.523 458.104C152.291 457 153.107 455.848 153.971 454.648C154.835 453.448 155.603 452.152 156.275 450.76C156.803 449.416 157.259 448.12 157.643 446.872C158.027 445.624 158.387 444.328 158.723 442.984C157.955 445.816 156.923 448.456 155.627 450.904C154.331 453.4 152.891 455.656 151.307 457.672C151.211 457.432 151.091 457.264 150.947 457.168C150.803 457.072 150.563 457.024 150.227 457.024L148.931 458.968C147.971 459.976 147.203 460.48 146.627 460.48C146.243 460.48 145.955 460.264 145.763 459.832C145.571 459.4 145.475 458.824 145.475 458.104L145.907 456.376L146.771 455.296C147.827 454.048 148.763 452.848 149.579 451.696C150.395 450.544 151.091 449.32 151.667 448.024C152.291 446.776 152.819 445.408 153.251 443.92C153.731 442.432 154.163 440.704 154.547 438.736C154.307 439.888 153.995 441.064 153.611 442.264C153.275 443.464 152.891 444.616 152.459 445.72C152.027 446.824 151.547 447.832 151.019 448.744C150.539 449.704 149.987 450.496 149.363 451.12L146.339 454.864C146.723 453.712 147.203 452.632 147.779 451.624C148.355 450.664 148.955 449.632 149.579 448.528C150.203 447.424 150.803 446.2 151.379 444.856C151.955 443.512 152.435 441.904 152.819 440.032L153.467 439.96C153.851 437.368 154.091 434.824 154.187 432.328C154.331 429.784 154.403 427.192 154.403 424.552C154.403 422.68 154.379 420.784 154.331 418.864C154.331 416.944 154.307 414.976 154.259 412.96C154.163 413.008 154.043 413.032 153.899 413.032H153.539C153.587 415.576 153.659 418.048 153.755 420.448C153.899 422.848 153.971 425.224 153.971 427.576C153.971 429.592 153.875 431.584 153.683 433.552C153.539 435.424 153.251 437.296 152.819 439.168C153.203 437.488 153.443 435.784 153.539 434.056C153.683 432.28 153.755 430.48 153.755 428.656C153.755 426.16 153.683 423.616 153.539 421.024C153.395 418.432 153.299 415.768 153.251 413.032C152.963 413.08 152.627 413.128 152.243 413.176C151.859 413.176 151.259 413.176 150.443 413.176C149.339 412.744 148.259 412.528 147.203 412.528V412.24C147.203 412.048 147.179 411.856 147.131 411.664C147.131 411.424 147.131 411.184 147.131 410.944C147.131 410.368 147.395 410.08 147.923 410.08L148.499 409.288C147.827 409.048 147.323 408.664 146.987 408.136C146.651 407.608 146.483 407.08 146.483 406.552C146.483 405.832 146.723 405.328 147.203 405.04C147.683 404.752 148.283 404.56 149.003 404.464C149.723 404.32 150.491 404.272 151.307 404.32C152.123 404.32 152.867 404.272 153.539 404.176C153.731 402.304 154.043 400.336 154.475 398.272C154.955 396.16 155.651 394.096 156.563 392.08C157.475 390.064 158.651 388.168 160.091 386.392C161.579 384.616 163.403 383.104 165.563 381.856C167.627 380.608 169.763 379.864 171.971 379.624C174.227 379.336 176.387 379.192 178.451 379.192H179.819C180.251 379.192 180.683 379.216 181.115 379.264L181.187 380.776C181.187 380.968 181.139 381.136 181.043 381.28C180.947 381.424 180.731 381.544 180.395 381.64C180.107 381.688 179.651 381.736 179.027 381.784C178.403 381.832 177.587 381.856 176.579 381.856C176.579 381.952 176.579 382.096 176.579 382.288C176.627 382.432 176.699 382.504 176.795 382.504C178.811 382.648 180.323 383.08 181.331 383.8C182.387 384.52 182.915 385.072 182.915 385.456C182.915 385.888 182.435 386.224 181.475 386.464C180.563 386.704 179.411 386.968 178.019 387.256C176.675 387.496 175.211 387.808 173.627 388.192C172.091 388.576 170.699 389.128 169.451 389.848C165.515 392.584 163.259 397.072 162.683 403.312C163.739 403.216 164.795 403.072 165.851 402.88C166.955 402.688 168.011 402.592 169.019 402.592C169.403 402.592 169.835 402.472 170.315 402.232C170.795 401.992 171.227 401.872 171.611 401.872C171.851 401.872 172.019 401.944 172.115 402.088C172.259 402.184 172.451 402.424 172.691 402.808C171.539 403.432 170.435 403.864 169.379 404.104C169.859 404.008 170.387 403.912 170.963 403.816C171.539 403.672 172.115 403.48 172.691 403.24C172.787 403.48 172.859 403.696 172.907 403.888C172.955 404.08 173.027 404.224 173.123 404.32C173.171 404.32 173.243 404.296 173.339 404.248C173.531 404.152 173.675 404.104 173.771 404.104C174.299 404.296 174.683 404.632 174.923 405.112C175.211 405.592 175.355 406.072 175.355 406.552C175.355 406.792 175.331 407.032 175.283 407.272C175.283 407.464 175.211 407.632 175.067 407.776ZM155.195 435.208C155.387 434.152 155.555 433.072 155.699 431.968C155.891 430.816 155.987 429.664 155.987 428.512C155.987 426.688 155.867 424.84 155.627 422.968C155.435 421.24 155.291 419.536 155.195 417.856C155.243 419.44 155.291 421 155.339 422.536C155.435 424.216 155.483 425.872 155.483 427.504C155.483 429.28 155.411 431.032 155.267 432.76C155.171 434.44 155.003 436.12 154.763 437.8V437.872L155.195 435.208ZM160.379 432.04C160.235 435.352 159.755 438.784 158.939 442.336C159.755 438.928 160.259 435.52 160.451 432.112C160.691 428.8 160.811 425.536 160.811 422.32C160.715 425.536 160.571 428.776 160.379 432.04ZM162.611 404.536C163.043 404.68 163.547 404.752 164.123 404.752C164.795 404.752 165.467 404.68 166.139 404.536C166.859 404.392 167.531 404.248 168.155 404.104C167.195 404.2 166.259 404.296 165.347 404.392C164.483 404.488 163.571 404.536 162.611 404.536ZM169.235 410.584C169.043 410.632 168.875 410.68 168.731 410.728C168.875 410.68 169.043 410.632 169.235 410.584ZM201.961 438.88C201.673 438.88 201.385 439.024 201.097 439.312C200.089 439.696 199.033 440.032 197.929 440.32C196.873 440.56 195.769 440.68 194.617 440.68C191.353 440.68 188.905 439.744 187.273 437.872C185.641 435.952 184.825 433.192 184.825 429.592C184.825 427.864 184.897 426.136 185.041 424.408C185.185 422.728 185.281 421.168 185.329 419.728C185.185 421.216 185.017 422.704 184.825 424.192C184.585 425.776 184.465 427.432 184.465 429.16C184.465 430.024 184.537 431.128 184.681 432.472C184.873 433.816 185.305 435.136 185.977 436.432C186.649 437.68 187.681 438.784 189.073 439.744C190.465 440.656 192.385 441.112 194.833 441.112C195.985 441.112 197.089 440.992 198.145 440.752C199.249 440.464 200.305 440.128 201.313 439.744C200.641 440.56 199.729 441.208 198.577 441.688C197.473 442.168 196.153 442.408 194.617 442.408C192.649 442.408 190.729 442 188.857 441.184C187.033 440.368 185.641 439 184.681 437.08L185.113 436.288C184.249 434.752 183.769 433.384 183.673 432.184C183.577 430.936 183.481 429.712 183.385 428.512L184.609 415.912C184.849 413.752 185.017 411.592 185.113 409.432L184.897 409.288C184.513 411.544 184.201 413.704 183.961 415.768C183.721 417.784 183.529 419.776 183.385 421.744V419.872C183.673 417.664 183.937 415.504 184.177 413.392C184.417 411.232 184.729 409.048 185.113 406.84C185.497 404.632 185.977 402.328 186.553 399.928C187.177 397.528 187.993 394.96 189.001 392.224C190.345 390.4 191.137 388.6 191.377 386.824C191.521 386.824 191.665 386.848 191.809 386.896C191.953 386.944 192.241 386.968 192.673 386.968C192.961 386.968 193.201 387.04 193.393 387.184C193.633 387.28 193.753 387.52 193.753 387.904C193.753 388.336 193.609 388.984 193.321 389.848C193.417 389.848 193.561 389.896 193.753 389.992C193.945 390.04 194.089 390.064 194.185 390.064C194.857 388.912 195.457 387.928 195.985 387.112C196.561 386.296 197.113 385.888 197.641 385.888C197.977 385.888 198.265 386.104 198.505 386.536C198.793 386.92 198.937 387.568 198.937 388.48C198.841 390.208 198.553 391.84 198.073 393.376C197.641 394.912 197.161 396.4 196.633 397.84C196.105 399.28 195.577 400.744 195.049 402.232C194.569 403.72 194.209 405.28 193.969 406.912C193.681 408.784 193.393 410.704 193.105 412.672C192.817 414.592 192.553 416.512 192.313 418.432C192.073 420.352 191.833 422.2 191.593 423.976C191.401 425.752 191.257 427.408 191.161 428.944C191.161 430.336 191.377 431.776 191.809 433.264C192.049 433.648 192.265 433.936 192.457 434.128C192.649 434.272 192.985 434.344 193.465 434.344C194.041 434.344 194.665 434.272 195.337 434.128C196.057 433.984 196.681 433.912 197.209 433.912C197.545 433.912 197.785 433.96 197.929 434.056C198.073 434.152 198.193 434.32 198.289 434.56C197.617 434.944 196.897 435.232 196.129 435.424C195.361 435.616 194.641 435.712 193.969 435.712H192.961C192.769 435.712 192.601 435.712 192.457 435.712C192.985 435.808 193.657 435.856 194.473 435.856C195.721 435.856 196.993 435.568 198.289 434.992C198.289 435.424 198.433 435.784 198.721 436.072C198.865 436.024 199.201 435.856 199.729 435.568C200.257 435.28 200.713 435.136 201.097 435.136C202.249 435.136 202.825 435.616 202.825 436.576C202.825 436.72 202.777 436.936 202.681 437.224C202.585 437.512 202.345 438.064 201.961 438.88ZM182.881 429.232C182.881 428.896 182.881 428.464 182.881 427.936C182.929 427.408 182.977 426.88 183.025 426.352L183.169 424.696C183.217 424.12 183.265 423.616 183.313 423.184C183.265 423.904 183.217 424.816 183.169 425.92C183.169 426.976 183.169 427.768 183.169 428.296V431.176C183.169 431.56 183.169 431.968 183.169 432.4C183.217 432.832 183.265 433.24 183.313 433.624C183.121 432.856 183.001 432.112 182.953 431.392C182.905 430.624 182.881 429.904 182.881 429.232ZM189.937 428.944C189.937 427.84 190.009 426.76 190.153 425.704C190.297 424.648 190.417 423.568 190.513 422.464C190.273 423.568 190.081 424.648 189.937 425.704C189.841 426.76 189.745 427.84 189.649 428.944V429.952C189.649 430.288 189.673 430.648 189.721 431.032V430.528C189.721 430.288 189.745 430.024 189.793 429.736C189.841 429.448 189.889 429.184 189.937 428.944ZM183.313 423.112C183.313 423.016 183.313 422.944 183.313 422.896C183.361 422.848 183.385 422.8 183.385 422.752C183.385 422.944 183.361 423.064 183.313 423.112ZM216.338 445.072C215.234 440.752 214.082 436.576 212.882 432.544C211.682 428.464 210.434 424.36 209.138 420.232C208.514 418.312 207.986 416.44 207.554 414.616C207.122 412.744 206.498 410.872 205.682 409C206.018 408.904 206.282 408.736 206.474 408.496C206.714 408.208 207.002 408.064 207.338 408.064C207.578 408.064 207.794 408.208 207.986 408.496C208.226 408.784 208.418 409.12 208.562 409.504C208.754 409.84 208.922 410.2 209.066 410.584C209.21 410.968 209.306 411.232 209.354 411.376L210.218 411.16C210.026 410.392 209.858 409.648 209.714 408.928C209.618 408.16 209.57 407.392 209.57 406.624C209.57 406.336 209.594 405.904 209.642 405.328C209.738 404.704 210.026 404.392 210.506 404.392C211.226 404.392 212.018 405.064 212.882 406.408C213.746 407.704 214.586 409.384 215.402 411.448C216.266 413.512 217.106 415.792 217.922 418.288C218.738 420.736 219.482 423.112 220.154 425.416C220.826 427.72 221.402 429.784 221.882 431.608C222.41 433.432 222.77 434.728 222.962 435.496C224.21 433.912 225.314 432.256 226.274 430.528C227.234 428.8 228.17 427.072 229.082 425.344C230.042 423.568 231.026 421.84 232.034 420.16C233.09 418.432 234.314 416.8 235.706 415.264C236.042 414.88 236.546 414.256 237.218 413.392C237.938 412.528 238.682 411.664 239.45 410.8C240.266 409.888 241.058 409.096 241.826 408.424C242.594 407.752 243.218 407.416 243.698 407.416C243.938 407.416 244.154 407.584 244.346 407.92C242.522 409.744 240.698 411.568 238.874 413.392C237.098 415.216 235.538 417.28 234.194 419.584C235.586 417.376 237.17 415.384 238.946 413.608C240.77 411.784 242.642 410.032 244.562 408.352L245.21 409.216C245.498 408.784 246.026 408.304 246.794 407.776C247.562 407.248 248.21 406.984 248.738 406.984C249.122 406.984 249.41 407.104 249.602 407.344C249.794 407.584 249.89 407.896 249.89 408.28C249.89 408.616 249.842 409.048 249.746 409.576C249.65 410.104 249.506 410.488 249.314 410.728C249.074 411.064 248.786 411.352 248.45 411.592C246.866 413.032 245.354 414.376 243.914 415.624C242.522 416.824 241.202 418.312 239.954 420.088L240.458 419.584C241.754 418.048 243.05 416.68 244.346 415.48C245.69 414.28 247.202 413.128 248.882 412.024C247.97 413.56 246.914 414.88 245.714 415.984C244.562 417.04 243.386 418.24 242.186 419.584C241.61 420.256 241.106 421 240.674 421.816C240.29 422.584 239.786 423.28 239.162 423.904L238.514 423.688C237.602 425.656 236.642 427.672 235.634 429.736C234.674 431.752 233.618 433.744 232.466 435.712C231.314 437.632 230.018 439.456 228.578 441.184C227.186 442.912 225.602 444.424 223.826 445.72C223.682 446.008 223.37 446.248 222.89 446.44C222.458 446.68 222.122 446.872 221.882 447.016L217.346 445C217.01 443.896 216.626 442.72 216.194 441.472C215.81 440.224 215.426 439.048 215.042 437.944L214.682 438.016L216.626 445C216.674 445.048 216.746 445.096 216.842 445.144C216.986 445.192 217.226 445.288 217.562 445.432C217.946 445.624 218.498 445.864 219.218 446.152C219.986 446.488 221.018 446.92 222.314 447.448C224.234 446.296 225.866 445.048 227.21 443.704C228.506 442.408 229.754 440.872 230.954 439.096C230.426 440.008 229.874 440.848 229.298 441.616C228.722 442.432 228.098 443.2 227.426 443.92C226.754 444.64 226.01 445.312 225.194 445.936C224.378 446.608 223.442 447.232 222.386 447.808L216.338 445.072ZM226.418 442.264C228.722 439.672 230.69 436.936 232.322 434.056C234.002 431.176 235.49 428.224 236.786 425.2V425.056C235.97 426.496 235.154 427.984 234.338 429.52C233.57 431.008 232.778 432.496 231.962 433.984C231.146 435.424 230.282 436.864 229.37 438.304C228.458 439.696 227.474 441.016 226.418 442.264ZM229.73 427.648C231.17 424.912 232.658 422.224 234.194 419.584C232.514 422.176 230.978 424.816 229.586 427.504C228.194 430.144 226.682 432.712 225.05 435.208C226.778 432.808 228.338 430.288 229.73 427.648ZM239.666 420.52C239.186 421.192 238.73 421.864 238.298 422.536C237.914 423.16 237.53 423.784 237.146 424.408C237.578 423.784 238.082 423.184 238.658 422.608C239.234 421.984 239.57 421.288 239.666 420.52ZM231.314 438.592C232.082 437.344 232.802 436.072 233.474 434.776C233.522 434.728 233.57 434.68 233.618 434.632C233.57 434.68 233.546 434.728 233.546 434.776C232.874 436.072 232.13 437.344 231.314 438.592ZM234.554 432.832L233.978 433.912L234.554 432.832ZM235.13 431.68C234.938 432.064 234.746 432.448 234.554 432.832C234.746 432.448 234.938 432.064 235.13 431.68ZM233.906 433.984C233.858 434.128 233.786 434.272 233.69 434.416C233.786 434.272 233.858 434.128 233.906 433.984ZM231.17 438.808C231.074 438.904 231.002 439 230.954 439.096C231.002 439 231.074 438.904 231.17 438.808Z" fill="white"/>
</svg>
