<svg width="368" height="473" viewBox="0 0 368 473" fill="none" xmlns="http://www.w3.org/2000/svg">
<path d="M1 40C1 18 19 0 41 0H278L367 89V432C367 454 349 472 327 472H41C19 472 1 454 1 432V40Z" fill="#CFD2FC"/>
<path d="M278 0L367 89H308C291 89 278 76 278 59V0Z" fill="#8690FA"/>
<path d="M268 160H100C88.9543 160 80 168.954 80 180V270C80 281.046 88.9543 290 100 290H268C279.046 290 288 281.046 288 270V180C288 168.954 279.046 160 268 160Z" fill="#8690FA"/>
<path d="M168 200L218 225L168 250V200Z" fill="white"/>
<path d="M1 437.761V348H367V437.299L366.5 441L365 447.015L363 451.642L360 456.269L356.5 460.433L351.5 464.134L346.5 467.373L341.5 469.687L335 471.537L330 472H39L35 471.537L31 471.075L26.5 469.687L23.5 468.299L19 465.985L15 463.209L12 460.433L9.5 457.657L7 454.418L5 451.179L3 447.015L2 443.313L1 437.761Z" fill="#5153FF" stroke="#5153FF"/>
<path d="M94.3196 442.48C95.5196 441.76 96.6236 440.824 97.6316 439.672C98.6396 438.52 99.6956 437.392 100.8 436.288C100.128 436.72 99.5276 437.2 98.9996 437.728L97.4876 439.24C96.9596 439.768 96.3836 440.296 95.7596 440.824C95.1836 441.304 94.4876 441.736 93.6716 442.12C93.4316 441.88 93.2396 441.688 93.0956 441.544C92.9996 441.4 92.9516 441.208 92.9516 440.968C92.9516 440.728 92.9756 440.584 93.0236 440.536L95.3276 438.232C95.3276 438.424 95.4476 438.592 95.6876 438.736C95.9276 438.832 96.1196 438.88 96.2636 438.88C96.5036 438.16 96.8636 437.584 97.3436 437.152C97.8236 436.72 98.3276 436.336 98.8556 436C99.3836 435.616 99.8876 435.208 100.368 434.776C100.848 434.344 101.208 433.768 101.448 433.048C101.4 433 101.376 432.952 101.376 432.904C101.28 432.808 101.208 432.76 101.16 432.76L95.7596 437.8C96.0956 437.416 96.6476 436.768 97.4156 435.856C98.1836 434.944 98.9756 434.008 99.7916 433.048C100.608 432.088 101.352 431.248 102.024 430.528C102.744 429.808 103.2 429.448 103.392 429.448L103.464 429.52C103.848 429.664 104.376 429.808 105.048 429.952C105.768 430.048 106.296 430.096 106.632 430.096C106.968 430.096 107.352 430.024 107.784 429.88C107.784 430.168 107.928 430.504 108.216 430.888C108.504 431.272 108.816 431.656 109.152 432.04C109.488 432.424 109.8 432.808 110.088 433.192C110.376 433.528 110.52 433.792 110.52 433.984C110.52 434.32 110.4 434.488 110.16 434.488H109.944C109.944 434.92 109.968 435.688 110.016 436.792C110.112 437.848 110.16 439.072 110.16 440.464C110.16 441.232 109.92 441.904 109.44 442.48C108.96 443.056 108.408 443.56 107.784 443.992C107.16 444.424 106.512 444.784 105.84 445.072C105.216 445.36 104.736 445.576 104.4 445.72C104.112 445.72 103.992 445.864 104.04 446.152C104.088 446.488 103.992 446.656 103.752 446.656H103.392C103.248 446.656 103.032 446.584 102.744 446.44C102.456 446.344 102.144 446.2 101.808 446.008C101.856 445.864 102.096 445.504 102.528 444.928C103.008 444.304 103.512 443.656 104.04 442.984C104.568 442.264 105.072 441.616 105.552 441.04C106.032 440.416 106.344 440.032 106.488 439.888C106.248 440.032 105.864 440.392 105.336 440.968C104.808 441.496 104.256 442.096 103.68 442.768C103.152 443.392 102.624 443.992 102.096 444.568C101.616 445.096 101.304 445.432 101.16 445.576C100.536 445.24 100.104 445.072 99.8636 445.072L99.5036 445.36C98.9756 445.36 98.3996 445.24 97.7756 445C97.1996 444.808 96.6476 444.568 96.1196 444.28C95.6396 443.992 95.2076 443.704 94.8236 443.416C94.4876 443.128 94.3196 442.912 94.3196 442.768V442.48ZM149.166 441.544C149.166 439.96 149.046 438.352 148.806 436.72C148.614 435.088 148.518 433.504 148.518 431.968V430.024C148.278 428.152 147.99 425.968 147.654 423.472C147.318 420.928 146.886 418.528 146.358 416.272C145.83 414.016 145.182 412.096 144.414 410.512C143.646 408.928 142.686 408.136 141.534 408.136C139.854 408.136 138.126 408.928 136.35 410.512C134.574 412.048 133.086 414.304 131.886 417.28C131.31 418.96 130.902 420.736 130.662 422.608C130.47 424.48 130.302 426.448 130.158 428.512C130.014 430.576 129.87 432.712 129.726 434.92C129.63 437.08 129.414 439.336 129.078 441.688C128.982 441.928 128.886 442.216 128.79 442.552C128.742 442.888 128.694 443.176 128.646 443.416H119.79V437.584C119.742 437.104 119.694 436.528 119.646 435.856C119.598 435.184 119.526 434.512 119.43 433.84C119.382 433.12 119.334 432.424 119.286 431.752C119.238 431.08 119.19 430.504 119.142 430.024C119.142 426.136 118.974 422.248 118.638 418.36C118.35 414.472 118.158 410.512 118.062 406.48L119.718 406.12C119.862 406.12 120.006 406.264 120.15 406.552C120.342 406.792 120.486 407.272 120.582 407.992C120.726 408.712 120.846 409.744 120.942 411.088C121.086 412.384 121.206 414.088 121.302 416.2C121.35 416.2 121.422 416.176 121.518 416.128C121.71 416.032 121.854 415.984 121.95 415.984C121.95 415.648 121.926 415.312 121.878 414.976C121.878 414.64 121.878 414.304 121.878 413.968C121.878 409.84 122.142 406.672 122.67 404.464C123.246 402.208 123.726 401.08 124.11 401.08C124.398 401.08 124.686 401.704 124.974 402.952C125.262 404.2 125.574 406.168 125.91 408.856C126.726 407.56 127.662 406.312 128.718 405.112C129.774 403.912 130.95 402.88 132.246 402.016C133.59 401.104 135.03 400.384 136.566 399.856C138.102 399.328 139.782 399.064 141.606 399.064C143.19 399.064 144.582 399.4 145.782 400.072C146.982 400.744 148.038 401.632 148.95 402.736C149.91 403.792 150.702 405.016 151.326 406.408C151.998 407.752 152.574 409.12 153.054 410.512C153.534 411.856 153.918 413.176 154.206 414.472C154.542 415.72 154.83 416.776 155.07 417.64C155.07 417.736 155.094 417.856 155.142 418C155.19 418.096 155.238 418.192 155.286 418.288C155.862 416.752 156.582 415 157.446 413.032C158.31 411.016 159.39 409.12 160.686 407.344C161.982 405.568 163.494 404.08 165.222 402.88C166.998 401.632 169.038 401.008 171.342 401.008C173.598 401.008 175.518 401.608 177.102 402.808C178.686 404.008 180.006 405.544 181.062 407.416C182.166 409.288 183.03 411.376 183.654 413.68C184.326 415.936 184.83 418.168 185.166 420.376C185.502 422.536 185.718 424.528 185.814 426.352C185.91 428.176 185.958 429.568 185.958 430.528C185.958 432.064 185.886 433.192 185.742 433.912C185.646 434.632 185.334 434.992 184.806 434.992C184.71 433.072 184.614 431.128 184.518 429.16C184.47 427.192 184.326 425.224 184.086 423.256C183.894 421.24 183.606 419.272 183.222 417.352C182.838 415.48 182.334 413.632 181.71 411.808C182.91 415.6 183.606 419.392 183.798 423.184C184.038 427.024 184.23 430.816 184.374 434.56C184.038 434.224 183.774 434.056 183.582 434.056C183.438 434.056 183.342 434.152 183.294 434.344V436.504C183.294 437.128 183.294 437.776 183.294 438.448C183.342 439.12 183.414 439.696 183.51 440.176C183.414 442.144 183.318 443.56 183.222 444.424C183.174 445.24 183.006 445.768 182.718 446.008C182.334 446.008 181.998 445.792 181.71 445.36C181.422 444.928 181.134 444.376 180.846 443.704C180.606 443.032 180.366 442.288 180.126 441.472C179.886 440.656 179.646 439.864 179.406 439.096V437.152C179.406 435.04 179.382 432.832 179.334 430.528C179.334 428.224 179.238 425.992 179.046 423.832C178.902 421.624 178.638 419.536 178.254 417.568C177.918 415.6 177.438 413.872 176.814 412.384C176.238 410.848 175.47 409.648 174.51 408.784C173.598 407.92 172.47 407.488 171.126 407.488C170.022 407.488 169.014 407.776 168.102 408.352C167.574 408.688 167.046 409.12 166.518 409.648C167.046 409.168 167.598 408.76 168.174 408.424C169.086 407.848 170.07 407.56 171.126 407.56H171.414C172.614 407.56 173.622 408.04 174.438 409C175.302 409.912 175.998 411.136 176.526 412.672C177.102 414.208 177.534 415.96 177.822 417.928C178.11 419.896 178.326 421.936 178.47 424.048C178.662 426.16 178.782 428.272 178.83 430.384C178.878 432.448 178.926 434.344 178.974 436.072C178.686 434.728 178.422 433.144 178.182 431.32C177.99 429.448 177.774 427.504 177.534 425.488C177.342 423.472 177.078 421.48 176.742 419.512C176.454 417.544 176.07 415.792 175.59 414.256C175.11 412.672 174.51 411.4 173.79 410.44C173.07 409.48 172.182 409 171.126 409C170.694 409 170.31 409.048 169.974 409.144C169.638 409.192 169.206 409.432 168.678 409.864L167.958 409.504C166.326 410.944 164.958 412.864 163.854 415.264C162.75 417.664 161.814 420.256 161.046 423.04C160.278 425.776 159.63 428.584 159.102 431.464C158.574 434.344 158.07 437.008 157.59 439.456V442.192C158.358 438.4 159.054 434.68 159.678 431.032C160.35 427.336 161.31 423.76 162.558 420.304C161.598 423.28 160.854 426.352 160.326 429.52C159.798 432.688 159.198 435.928 158.526 439.24C158.526 439.576 158.454 440.032 158.31 440.608C158.166 441.184 157.926 442.048 157.59 443.2L149.67 442.408L149.166 441.544ZM149.958 437.944C149.814 436.648 149.67 434.992 149.526 432.976C149.43 430.96 149.286 428.824 149.094 426.568C148.902 424.312 148.638 422.032 148.302 419.728C147.966 417.424 147.486 415.36 146.862 413.536C146.286 411.664 145.542 410.152 144.63 409C143.766 407.848 142.662 407.272 141.318 407.272C140.886 407.272 140.43 407.368 139.95 407.56C139.47 407.752 139.014 407.968 138.582 408.208C138.726 408.16 138.846 408.136 138.942 408.136H139.014C139.014 408.184 138.942 408.28 138.798 408.424C140.094 407.992 141.102 407.776 141.822 407.776C142.734 408.112 143.55 408.856 144.27 410.008C144.99 411.16 145.59 412.552 146.07 414.184C146.598 415.768 147.03 417.496 147.366 419.368C147.75 421.24 148.038 423.04 148.23 424.768C148.422 426.448 148.566 427.96 148.662 429.304C148.758 430.648 148.806 431.608 148.806 432.184C148.95 433.624 149.07 435.04 149.166 436.432C149.31 437.824 149.382 439.216 149.382 440.608L149.958 437.944ZM156.006 418.576C156.006 418.624 156.054 418.84 156.15 419.224C156.246 419.56 156.318 419.776 156.366 419.872C156.51 419.392 156.822 418.624 157.302 417.568C157.782 416.464 158.31 415.312 158.886 414.112C159.462 412.864 160.014 411.712 160.542 410.656C160.734 410.224 160.902 409.84 161.046 409.504C160.902 409.792 160.71 410.104 160.47 410.44C159.942 411.4 159.366 412.408 158.742 413.464C158.118 414.472 157.542 415.456 157.014 416.416C156.486 417.376 156.15 418.096 156.006 418.576ZM161.694 417.712C160.734 420.16 159.894 422.752 159.174 425.488C158.454 428.176 157.806 430.96 157.23 433.84L157.374 434.992C157.998 431.536 158.718 428.056 159.534 424.552C160.302 421.48 161.286 418.576 162.486 415.84C162.438 415.984 162.39 416.104 162.342 416.2C162.102 416.68 161.886 417.184 161.694 417.712ZM149.958 427.504C150.054 428.272 150.102 429.016 150.102 429.736C150.15 430.456 150.198 431.128 150.246 431.752L150.462 435.208L150.534 434.848C150.486 434.176 150.462 433.528 150.462 432.904V431.104L149.958 427.504ZM173.574 402.808C172.71 402.568 171.894 402.448 171.126 402.448H170.334C169.998 402.448 169.83 402.472 169.83 402.52H169.902C170.67 402.712 171.39 402.808 172.062 402.808H173.574ZM162.918 419.296C163.158 418.624 163.374 417.976 163.566 417.352C163.806 416.728 163.998 416.296 164.142 416.056C164.142 416.152 164.094 416.344 163.998 416.632C163.902 416.968 163.71 417.472 163.422 418.144L162.918 419.296ZM178.542 405.832C178.302 405.544 177.99 405.256 177.606 404.968C177.318 404.776 177.054 404.608 176.814 404.464C177.39 404.848 177.966 405.304 178.542 405.832ZM161.406 408.856C161.31 408.952 161.238 409.096 161.19 409.288C161.286 409.144 161.358 409 161.406 408.856ZM223.603 445.216C223.267 443.968 222.763 442.672 222.091 441.328C221.467 439.984 220.747 438.64 219.931 437.296C220.699 438.64 221.323 440.008 221.803 441.4C222.331 442.792 222.691 444.136 222.883 445.432C222.355 444.856 221.851 444.184 221.371 443.416C220.939 442.6 220.483 441.76 220.003 440.896C219.523 439.984 219.019 439.072 218.491 438.16C218.011 437.248 217.483 436.384 216.907 435.568C217.195 435.28 217.411 435.136 217.555 435.136C215.587 432.832 213.451 430.696 211.147 428.728C208.843 426.76 206.155 425.392 203.083 424.624V425.848C204.475 426.136 205.963 426.64 207.547 427.36C206.155 426.784 204.715 426.4 203.227 426.208C203.131 427.6 203.035 428.968 202.939 430.312C202.843 431.608 202.699 432.88 202.507 434.128C202.507 434.896 202.531 435.784 202.579 436.792C202.627 437.752 202.651 438.712 202.651 439.672C202.651 442.36 202.291 443.704 201.571 443.704C201.475 443.704 201.331 443.656 201.139 443.56C201.187 442.792 201.211 442.048 201.211 441.328V434.344C201.115 435.832 201.043 437.344 200.995 438.88C200.947 440.368 200.827 441.832 200.635 443.272C200.107 443.608 199.747 443.992 199.555 444.424C199.411 444.808 199.267 445.168 199.123 445.504C199.027 445.84 198.859 446.104 198.619 446.296C198.427 446.536 198.043 446.656 197.467 446.656C196.939 446.656 196.483 446.416 196.099 445.936C195.763 445.504 195.427 444.952 195.091 444.28L195.307 443.56C195.547 442.168 195.691 440.752 195.739 439.312C195.835 437.824 195.883 436.336 195.883 434.848C195.883 432.112 195.931 429.496 196.027 427C196.171 424.504 196.339 421.96 196.531 419.368C196.531 418.168 196.507 416.992 196.459 415.84C196.459 414.688 196.459 413.56 196.459 412.456L195.739 427.936C195.499 430.576 195.379 433.264 195.379 436C195.379 438.688 195.139 441.112 194.659 443.272C194.419 442.792 194.227 442.312 194.083 441.832C193.987 441.304 193.939 440.68 193.939 439.96C193.939 439.048 193.915 438.232 193.867 437.512C193.867 436.744 193.867 435.952 193.867 435.136C193.867 434.56 193.867 433.936 193.867 433.264C193.915 432.592 193.963 431.848 194.011 431.032L195.091 429.592C195.043 428.92 195.019 428.272 195.019 427.648V425.632C195.019 423.136 195.067 420.664 195.163 418.216C195.259 415.72 195.307 413.2 195.307 410.656V408.712C195.307 408.136 195.283 407.584 195.235 407.056C195.187 406.528 195.139 405.976 195.091 405.4C195.043 404.776 194.971 404.104 194.875 403.384H194.659C194.659 404.2 194.659 404.944 194.659 405.616C194.707 406.288 194.731 406.96 194.731 407.632C194.779 408.256 194.803 408.904 194.803 409.576V411.736C194.803 417.592 194.587 423.472 194.155 429.376C194.251 427.264 194.323 425.2 194.371 423.184C194.419 421.12 194.443 419.056 194.443 416.992C194.443 414.832 194.419 412.744 194.371 410.728C194.323 408.712 194.275 406.72 194.227 404.752C194.227 402.736 194.203 400.696 194.155 398.632C194.107 396.568 194.083 394.408 194.083 392.152C194.083 390.904 194.131 389.776 194.227 388.768C194.323 387.76 194.443 386.776 194.587 385.816C194.779 384.808 194.947 383.776 195.091 382.72C195.283 381.664 195.451 380.44 195.595 379.048L197.179 379.12C197.467 379.12 197.707 379.24 197.899 379.48C198.139 379.672 198.259 380.128 198.259 380.848C198.259 381.088 198.235 381.328 198.187 381.568C198.187 381.808 198.163 382.096 198.115 382.432H198.835C199.219 380.992 199.699 379.888 200.275 379.12C200.899 378.304 201.475 377.896 202.003 377.896C202.675 377.896 203.131 378.52 203.371 379.768C203.659 380.968 203.803 382.72 203.803 385.024C203.803 385.936 203.779 386.752 203.731 387.472C203.731 388.192 203.707 388.912 203.659 389.632C203.611 390.352 203.563 391.12 203.515 391.936C203.515 392.704 203.515 393.592 203.515 394.6C203.515 395.848 203.539 397.024 203.587 398.128C203.635 399.232 203.683 400.312 203.731 401.368C203.827 402.424 203.899 403.504 203.947 404.608C203.995 405.664 204.019 406.792 204.019 407.992V418.504C205.507 417.88 207.067 416.872 208.699 415.48C210.331 414.088 211.867 412.576 213.307 410.944C214.747 409.312 216.019 407.68 217.123 406.048C218.227 404.416 218.995 403.048 219.427 401.944C219.571 402.136 219.763 402.256 220.003 402.304L220.723 402.448C220.963 402.496 221.179 402.592 221.371 402.736C221.563 402.832 221.659 403.024 221.659 403.312C221.659 403.552 221.587 403.864 221.443 404.248C221.347 404.584 221.131 405.016 220.795 405.544L221.515 406.048C222.283 404.992 223.051 404.152 223.819 403.528C224.587 402.856 225.235 402.52 225.763 402.52C226.483 402.52 226.843 403.12 226.843 404.32C226.843 405.904 226.459 407.488 225.691 409.072C224.971 410.608 224.035 412.072 222.883 413.464C221.731 414.808 220.411 416.08 218.923 417.28C217.483 418.48 216.043 419.512 214.603 420.376C217.195 422.152 219.451 424.264 221.371 426.712C223.291 429.112 224.803 431.584 225.907 434.128C226.195 434.608 226.555 435.184 226.987 435.856C227.419 436.528 227.851 437.224 228.283 437.944C228.715 438.664 229.075 439.384 229.363 440.104C229.699 440.776 229.867 441.352 229.867 441.832C229.867 442.456 229.771 442.816 229.579 442.912C229.387 443.008 229.171 443.056 228.931 443.056C228.259 441.136 227.443 439.384 226.483 437.8C225.619 436.312 224.755 434.848 223.891 433.408C224.707 434.896 225.523 436.36 226.339 437.8C227.203 439.384 227.899 441.136 228.427 443.056C228.187 443.056 227.971 443.08 227.779 443.128C227.587 443.176 227.419 443.32 227.275 443.56C227.323 443.8 227.371 444.016 227.419 444.208C227.515 444.64 227.635 444.976 227.779 445.216C227.587 445.984 227.347 446.488 227.059 446.728C226.771 447.016 226.459 447.16 226.123 447.16C225.739 447.16 225.259 446.992 224.683 446.656C224.155 446.368 223.795 446.128 223.603 445.936V445.216ZM212.155 428.08C213.835 429.472 215.395 431.032 216.835 432.76L216.187 431.752C215.131 430.072 213.739 428.656 212.011 427.504C210.379 426.4 208.723 425.584 207.043 425.056C208.819 425.728 210.523 426.736 212.155 428.08ZM220.867 428.656C220.051 427.168 219.043 425.944 217.843 424.984C216.739 424.072 215.587 423.16 214.387 422.248C215.443 423.16 216.523 424.144 217.627 425.2C218.779 426.304 219.859 427.456 220.867 428.656ZM215.395 433.696C214.483 432.64 213.379 431.56 212.083 430.456C210.787 429.304 209.563 428.416 208.411 427.792C209.611 428.368 210.811 429.136 212.011 430.096C213.259 431.008 214.387 432.208 215.395 433.696ZM244.112 445.072C243.008 440.752 241.856 436.576 240.656 432.544C239.456 428.464 238.208 424.36 236.912 420.232C236.288 418.312 235.76 416.44 235.328 414.616C234.896 412.744 234.272 410.872 233.456 409C233.792 408.904 234.056 408.736 234.248 408.496C234.488 408.208 234.776 408.064 235.112 408.064C235.352 408.064 235.568 408.208 235.76 408.496C236 408.784 236.192 409.12 236.336 409.504C236.528 409.84 236.696 410.2 236.84 410.584C236.984 410.968 237.08 411.232 237.128 411.376L237.992 411.16C237.8 410.392 237.632 409.648 237.488 408.928C237.392 408.16 237.344 407.392 237.344 406.624C237.344 406.336 237.368 405.904 237.416 405.328C237.512 404.704 237.8 404.392 238.28 404.392C239 404.392 239.792 405.064 240.656 406.408C241.52 407.704 242.36 409.384 243.176 411.448C244.04 413.512 244.88 415.792 245.696 418.288C246.512 420.736 247.256 423.112 247.928 425.416C248.6 427.72 249.176 429.784 249.656 431.608C250.184 433.432 250.544 434.728 250.736 435.496C251.984 433.912 253.088 432.256 254.048 430.528C255.008 428.8 255.944 427.072 256.856 425.344C257.816 423.568 258.8 421.84 259.808 420.16C260.864 418.432 262.088 416.8 263.48 415.264C263.816 414.88 264.32 414.256 264.992 413.392C265.712 412.528 266.456 411.664 267.224 410.8C268.04 409.888 268.832 409.096 269.6 408.424C270.368 407.752 270.992 407.416 271.472 407.416C271.712 407.416 271.928 407.584 272.12 407.92C270.296 409.744 268.472 411.568 266.648 413.392C264.872 415.216 263.312 417.28 261.968 419.584C263.36 417.376 264.944 415.384 266.72 413.608C268.544 411.784 270.416 410.032 272.336 408.352L272.984 409.216C273.272 408.784 273.8 408.304 274.568 407.776C275.336 407.248 275.984 406.984 276.512 406.984C276.896 406.984 277.184 407.104 277.376 407.344C277.568 407.584 277.664 407.896 277.664 408.28C277.664 408.616 277.616 409.048 277.52 409.576C277.424 410.104 277.28 410.488 277.088 410.728C276.848 411.064 276.56 411.352 276.224 411.592C274.64 413.032 273.128 414.376 271.688 415.624C270.296 416.824 268.976 418.312 267.728 420.088L268.232 419.584C269.528 418.048 270.824 416.68 272.12 415.48C273.464 414.28 274.976 413.128 276.656 412.024C275.744 413.56 274.688 414.88 273.488 415.984C272.336 417.04 271.16 418.24 269.96 419.584C269.384 420.256 268.88 421 268.448 421.816C268.064 422.584 267.56 423.28 266.936 423.904L266.288 423.688C265.376 425.656 264.416 427.672 263.408 429.736C262.448 431.752 261.392 433.744 260.24 435.712C259.088 437.632 257.792 439.456 256.352 441.184C254.96 442.912 253.376 444.424 251.6 445.72C251.456 446.008 251.144 446.248 250.664 446.44C250.232 446.68 249.896 446.872 249.656 447.016L245.12 445C244.784 443.896 244.4 442.72 243.968 441.472C243.584 440.224 243.2 439.048 242.816 437.944L242.456 438.016L244.4 445C244.448 445.048 244.52 445.096 244.616 445.144C244.76 445.192 245 445.288 245.336 445.432C245.72 445.624 246.272 445.864 246.992 446.152C247.76 446.488 248.792 446.92 250.088 447.448C252.008 446.296 253.64 445.048 254.984 443.704C256.28 442.408 257.528 440.872 258.728 439.096C258.2 440.008 257.648 440.848 257.072 441.616C256.496 442.432 255.872 443.2 255.2 443.92C254.528 444.64 253.784 445.312 252.968 445.936C252.152 446.608 251.216 447.232 250.16 447.808L244.112 445.072ZM254.192 442.264C256.496 439.672 258.464 436.936 260.096 434.056C261.776 431.176 263.264 428.224 264.56 425.2V425.056C263.744 426.496 262.928 427.984 262.112 429.52C261.344 431.008 260.552 432.496 259.736 433.984C258.92 435.424 258.056 436.864 257.144 438.304C256.232 439.696 255.248 441.016 254.192 442.264ZM257.504 427.648C258.944 424.912 260.432 422.224 261.968 419.584C260.288 422.176 258.752 424.816 257.36 427.504C255.968 430.144 254.456 432.712 252.824 435.208C254.552 432.808 256.112 430.288 257.504 427.648ZM267.44 420.52C266.96 421.192 266.504 421.864 266.072 422.536C265.688 423.16 265.304 423.784 264.92 424.408C265.352 423.784 265.856 423.184 266.432 422.608C267.008 421.984 267.344 421.288 267.44 420.52ZM259.088 438.592C259.856 437.344 260.576 436.072 261.248 434.776C261.296 434.728 261.344 434.68 261.392 434.632C261.344 434.68 261.32 434.728 261.32 434.776C260.648 436.072 259.904 437.344 259.088 438.592ZM262.328 432.832L261.752 433.912L262.328 432.832ZM262.904 431.68C262.712 432.064 262.52 432.448 262.328 432.832C262.52 432.448 262.712 432.064 262.904 431.68ZM261.68 433.984C261.632 434.128 261.56 434.272 261.464 434.416C261.56 434.272 261.632 434.128 261.68 433.984ZM258.944 438.808C258.848 438.904 258.776 439 258.728 439.096C258.776 439 258.848 438.904 258.944 438.808Z" fill="white"/>
</svg>
