<svg width="368" height="473" viewBox="0 0 368 473" fill="none" xmlns="http://www.w3.org/2000/svg">
<path d="M1 40C1 18 19 0 41 0H278L367 89V432C367 454 349 472 327 472H41C19 472 1 454 1 432V40Z" fill="#CFD2FC"/>
<path d="M278 0L367 89H308C291 89 278 76 278 59V0Z" fill="#8690FA"/>
<path d="M268 160H100C88.9543 160 80 168.954 80 180V270C80 281.046 88.9543 290 100 290H268C279.046 290 288 281.046 288 270V180C288 168.954 279.046 160 268 160Z" fill="#8690FA"/>
<path d="M168 200L218 225L168 250V200Z" fill="white"/>
<path d="M1 437.761V348H367V437.299L366.5 441L365 447.015L363 451.642L360 456.269L356.5 460.433L351.5 464.134L346.5 467.373L341.5 469.687L335 471.537L330 472H39L35 471.537L31 471.075L26.5 469.687L23.5 468.299L19 465.985L15 463.209L12 460.433L9.5 457.657L7 454.418L5 451.179L3 447.015L2 443.313L1 437.761Z" fill="#5153FF" stroke="#5153FF"/>
<path d="M95.2961 442.48C96.4961 441.76 97.6001 440.824 98.6081 439.672C99.6161 438.52 100.672 437.392 101.776 436.288C101.104 436.72 100.504 437.2 99.9761 437.728L98.4641 439.24C97.9361 439.768 97.3601 440.296 96.7361 440.824C96.1601 441.304 95.4641 441.736 94.6481 442.12C94.4081 441.88 94.2161 441.688 94.0721 441.544C93.9761 441.4 93.9281 441.208 93.9281 440.968C93.9281 440.728 93.9521 440.584 94.0001 440.536L96.3041 438.232C96.3041 438.424 96.4241 438.592 96.6641 438.736C96.9041 438.832 97.0961 438.88 97.2401 438.88C97.4801 438.16 97.8401 437.584 98.3201 437.152C98.8001 436.72 99.3041 436.336 99.8321 436C100.36 435.616 100.864 435.208 101.344 434.776C101.824 434.344 102.184 433.768 102.424 433.048C102.376 433 102.352 432.952 102.352 432.904C102.256 432.808 102.184 432.76 102.136 432.76L96.7361 437.8C97.0721 437.416 97.6241 436.768 98.3921 435.856C99.1601 434.944 99.9521 434.008 100.768 433.048C101.584 432.088 102.328 431.248 103 430.528C103.72 429.808 104.176 429.448 104.368 429.448L104.44 429.52C104.824 429.664 105.352 429.808 106.024 429.952C106.744 430.048 107.272 430.096 107.608 430.096C107.944 430.096 108.328 430.024 108.76 429.88C108.76 430.168 108.904 430.504 109.192 430.888C109.48 431.272 109.792 431.656 110.128 432.04C110.464 432.424 110.776 432.808 111.064 433.192C111.352 433.528 111.496 433.792 111.496 433.984C111.496 434.32 111.376 434.488 111.136 434.488H110.92C110.92 434.92 110.944 435.688 110.992 436.792C111.088 437.848 111.136 439.072 111.136 440.464C111.136 441.232 110.896 441.904 110.416 442.48C109.936 443.056 109.384 443.56 108.76 443.992C108.136 444.424 107.488 444.784 106.816 445.072C106.192 445.36 105.712 445.576 105.376 445.72C105.088 445.72 104.968 445.864 105.016 446.152C105.064 446.488 104.968 446.656 104.728 446.656H104.368C104.224 446.656 104.008 446.584 103.72 446.44C103.432 446.344 103.12 446.2 102.784 446.008C102.832 445.864 103.072 445.504 103.504 444.928C103.984 444.304 104.488 443.656 105.016 442.984C105.544 442.264 106.048 441.616 106.528 441.04C107.008 440.416 107.32 440.032 107.464 439.888C107.224 440.032 106.84 440.392 106.312 440.968C105.784 441.496 105.232 442.096 104.656 442.768C104.128 443.392 103.6 443.992 103.072 444.568C102.592 445.096 102.28 445.432 102.136 445.576C101.512 445.24 101.08 445.072 100.84 445.072L100.48 445.36C99.9521 445.36 99.3761 445.24 98.7521 445C98.1761 444.808 97.6241 444.568 97.0961 444.28C96.6161 443.992 96.1841 443.704 95.8001 443.416C95.4641 443.128 95.2961 442.912 95.2961 442.768V442.48ZM150.142 441.544C150.142 439.96 150.022 438.352 149.782 436.72C149.59 435.088 149.494 433.504 149.494 431.968V430.024C149.254 428.152 148.966 425.968 148.63 423.472C148.294 420.928 147.862 418.528 147.334 416.272C146.806 414.016 146.158 412.096 145.39 410.512C144.622 408.928 143.662 408.136 142.51 408.136C140.83 408.136 139.102 408.928 137.326 410.512C135.55 412.048 134.062 414.304 132.862 417.28C132.286 418.96 131.878 420.736 131.638 422.608C131.446 424.48 131.278 426.448 131.134 428.512C130.99 430.576 130.846 432.712 130.702 434.92C130.606 437.08 130.39 439.336 130.054 441.688C129.958 441.928 129.862 442.216 129.766 442.552C129.718 442.888 129.67 443.176 129.622 443.416H120.766V437.584C120.718 437.104 120.67 436.528 120.622 435.856C120.574 435.184 120.502 434.512 120.406 433.84C120.358 433.12 120.31 432.424 120.262 431.752C120.214 431.08 120.166 430.504 120.118 430.024C120.118 426.136 119.95 422.248 119.614 418.36C119.326 414.472 119.134 410.512 119.038 406.48L120.694 406.12C120.838 406.12 120.982 406.264 121.126 406.552C121.318 406.792 121.462 407.272 121.558 407.992C121.702 408.712 121.822 409.744 121.918 411.088C122.062 412.384 122.182 414.088 122.278 416.2C122.326 416.2 122.398 416.176 122.494 416.128C122.686 416.032 122.83 415.984 122.926 415.984C122.926 415.648 122.902 415.312 122.854 414.976C122.854 414.64 122.854 414.304 122.854 413.968C122.854 409.84 123.118 406.672 123.646 404.464C124.222 402.208 124.702 401.08 125.086 401.08C125.374 401.08 125.662 401.704 125.95 402.952C126.238 404.2 126.55 406.168 126.886 408.856C127.702 407.56 128.638 406.312 129.694 405.112C130.75 403.912 131.926 402.88 133.222 402.016C134.566 401.104 136.006 400.384 137.542 399.856C139.078 399.328 140.758 399.064 142.582 399.064C144.166 399.064 145.558 399.4 146.758 400.072C147.958 400.744 149.014 401.632 149.926 402.736C150.886 403.792 151.678 405.016 152.302 406.408C152.974 407.752 153.55 409.12 154.03 410.512C154.51 411.856 154.894 413.176 155.182 414.472C155.518 415.72 155.806 416.776 156.046 417.64C156.046 417.736 156.07 417.856 156.118 418C156.166 418.096 156.214 418.192 156.262 418.288C156.838 416.752 157.558 415 158.422 413.032C159.286 411.016 160.366 409.12 161.662 407.344C162.958 405.568 164.47 404.08 166.198 402.88C167.974 401.632 170.014 401.008 172.318 401.008C174.574 401.008 176.494 401.608 178.078 402.808C179.662 404.008 180.982 405.544 182.038 407.416C183.142 409.288 184.006 411.376 184.63 413.68C185.302 415.936 185.806 418.168 186.142 420.376C186.478 422.536 186.694 424.528 186.79 426.352C186.886 428.176 186.934 429.568 186.934 430.528C186.934 432.064 186.862 433.192 186.718 433.912C186.622 434.632 186.31 434.992 185.782 434.992C185.686 433.072 185.59 431.128 185.494 429.16C185.446 427.192 185.302 425.224 185.062 423.256C184.87 421.24 184.582 419.272 184.198 417.352C183.814 415.48 183.31 413.632 182.686 411.808C183.886 415.6 184.582 419.392 184.774 423.184C185.014 427.024 185.206 430.816 185.35 434.56C185.014 434.224 184.75 434.056 184.558 434.056C184.414 434.056 184.318 434.152 184.27 434.344V436.504C184.27 437.128 184.27 437.776 184.27 438.448C184.318 439.12 184.39 439.696 184.486 440.176C184.39 442.144 184.294 443.56 184.198 444.424C184.15 445.24 183.982 445.768 183.694 446.008C183.31 446.008 182.974 445.792 182.686 445.36C182.398 444.928 182.11 444.376 181.822 443.704C181.582 443.032 181.342 442.288 181.102 441.472C180.862 440.656 180.622 439.864 180.382 439.096V437.152C180.382 435.04 180.358 432.832 180.31 430.528C180.31 428.224 180.214 425.992 180.022 423.832C179.878 421.624 179.614 419.536 179.23 417.568C178.894 415.6 178.414 413.872 177.79 412.384C177.214 410.848 176.446 409.648 175.486 408.784C174.574 407.92 173.446 407.488 172.102 407.488C170.998 407.488 169.99 407.776 169.078 408.352C168.55 408.688 168.022 409.12 167.494 409.648C168.022 409.168 168.574 408.76 169.15 408.424C170.062 407.848 171.046 407.56 172.102 407.56H172.39C173.59 407.56 174.598 408.04 175.414 409C176.278 409.912 176.974 411.136 177.502 412.672C178.078 414.208 178.51 415.96 178.798 417.928C179.086 419.896 179.302 421.936 179.446 424.048C179.638 426.16 179.758 428.272 179.806 430.384C179.854 432.448 179.902 434.344 179.95 436.072C179.662 434.728 179.398 433.144 179.158 431.32C178.966 429.448 178.75 427.504 178.51 425.488C178.318 423.472 178.054 421.48 177.718 419.512C177.43 417.544 177.046 415.792 176.566 414.256C176.086 412.672 175.486 411.4 174.766 410.44C174.046 409.48 173.158 409 172.102 409C171.67 409 171.286 409.048 170.95 409.144C170.614 409.192 170.182 409.432 169.654 409.864L168.934 409.504C167.302 410.944 165.934 412.864 164.83 415.264C163.726 417.664 162.79 420.256 162.022 423.04C161.254 425.776 160.606 428.584 160.078 431.464C159.55 434.344 159.046 437.008 158.566 439.456V442.192C159.334 438.4 160.03 434.68 160.654 431.032C161.326 427.336 162.286 423.76 163.534 420.304C162.574 423.28 161.83 426.352 161.302 429.52C160.774 432.688 160.174 435.928 159.502 439.24C159.502 439.576 159.43 440.032 159.286 440.608C159.142 441.184 158.902 442.048 158.566 443.2L150.646 442.408L150.142 441.544ZM150.934 437.944C150.79 436.648 150.646 434.992 150.502 432.976C150.406 430.96 150.262 428.824 150.07 426.568C149.878 424.312 149.614 422.032 149.278 419.728C148.942 417.424 148.462 415.36 147.838 413.536C147.262 411.664 146.518 410.152 145.606 409C144.742 407.848 143.638 407.272 142.294 407.272C141.862 407.272 141.406 407.368 140.926 407.56C140.446 407.752 139.99 407.968 139.558 408.208C139.702 408.16 139.822 408.136 139.918 408.136H139.99C139.99 408.184 139.918 408.28 139.774 408.424C141.07 407.992 142.078 407.776 142.798 407.776C143.71 408.112 144.526 408.856 145.246 410.008C145.966 411.16 146.566 412.552 147.046 414.184C147.574 415.768 148.006 417.496 148.342 419.368C148.726 421.24 149.014 423.04 149.206 424.768C149.398 426.448 149.542 427.96 149.638 429.304C149.734 430.648 149.782 431.608 149.782 432.184C149.926 433.624 150.046 435.04 150.142 436.432C150.286 437.824 150.358 439.216 150.358 440.608L150.934 437.944ZM156.982 418.576C156.982 418.624 157.03 418.84 157.126 419.224C157.222 419.56 157.294 419.776 157.342 419.872C157.486 419.392 157.798 418.624 158.278 417.568C158.758 416.464 159.286 415.312 159.862 414.112C160.438 412.864 160.99 411.712 161.518 410.656C161.71 410.224 161.878 409.84 162.022 409.504C161.878 409.792 161.686 410.104 161.446 410.44C160.918 411.4 160.342 412.408 159.718 413.464C159.094 414.472 158.518 415.456 157.99 416.416C157.462 417.376 157.126 418.096 156.982 418.576ZM162.67 417.712C161.71 420.16 160.87 422.752 160.15 425.488C159.43 428.176 158.782 430.96 158.206 433.84L158.35 434.992C158.974 431.536 159.694 428.056 160.51 424.552C161.278 421.48 162.262 418.576 163.462 415.84C163.414 415.984 163.366 416.104 163.318 416.2C163.078 416.68 162.862 417.184 162.67 417.712ZM150.934 427.504C151.03 428.272 151.078 429.016 151.078 429.736C151.126 430.456 151.174 431.128 151.222 431.752L151.438 435.208L151.51 434.848C151.462 434.176 151.438 433.528 151.438 432.904V431.104L150.934 427.504ZM174.55 402.808C173.686 402.568 172.87 402.448 172.102 402.448H171.31C170.974 402.448 170.806 402.472 170.806 402.52H170.878C171.646 402.712 172.366 402.808 173.038 402.808H174.55ZM163.894 419.296C164.134 418.624 164.35 417.976 164.542 417.352C164.782 416.728 164.974 416.296 165.118 416.056C165.118 416.152 165.07 416.344 164.974 416.632C164.878 416.968 164.686 417.472 164.398 418.144L163.894 419.296ZM179.518 405.832C179.278 405.544 178.966 405.256 178.582 404.968C178.294 404.776 178.03 404.608 177.79 404.464C178.366 404.848 178.942 405.304 179.518 405.832ZM162.382 408.856C162.286 408.952 162.214 409.096 162.166 409.288C162.262 409.144 162.334 409 162.382 408.856ZM200.747 465.88C200.843 463.192 200.915 460.528 200.963 457.888C201.011 455.296 201.035 452.536 201.035 449.608C201.035 448.36 201.011 447.112 200.963 445.864C200.915 444.664 200.843 443.488 200.747 442.336V450.256C200.747 452.896 200.699 455.512 200.603 458.104C200.555 460.744 200.387 463.336 200.099 465.88C199.859 465.448 199.643 464.992 199.451 464.512C199.259 464.08 199.115 463.6 199.019 463.072C199.115 461.776 199.163 460.576 199.163 459.472C199.211 458.416 199.235 457.24 199.235 455.944L200.099 455.512C199.955 454.504 199.859 453.472 199.811 452.416C199.763 451.408 199.739 450.4 199.739 449.392C199.739 448.288 199.739 447.208 199.739 446.152C199.787 445.144 199.811 444.088 199.811 442.984C199.811 441.64 199.763 440.32 199.667 439.024C199.619 437.68 199.475 436.336 199.235 434.992H199.019C199.115 437.008 199.187 439 199.235 440.968C199.331 442.936 199.379 444.904 199.379 446.872C199.379 447.736 199.355 448.6 199.307 449.464L199.235 451.336C199.139 446.728 198.971 442.216 198.731 437.8C198.539 433.096 198.203 428.272 197.723 423.328L198.011 417.352C197.483 417.304 196.931 417.28 196.355 417.28H194.699L194.483 415.624C194.483 415.384 194.651 415.168 194.987 414.976C195.323 414.784 195.995 414.688 197.003 414.688H197.723V413.824C196.139 413.632 194.891 413.296 193.979 412.816C193.115 412.336 192.683 411.832 192.683 411.304C192.683 410.824 193.115 410.416 193.979 410.08C194.843 409.696 195.947 409.408 197.291 409.216C198.683 408.976 200.195 408.808 201.827 408.712C203.459 408.616 205.043 408.568 206.579 408.568C208.259 408.568 210.059 408.616 211.979 408.712C213.947 408.808 215.915 409.048 217.883 409.432C219.851 409.816 221.747 410.416 223.571 411.232C225.443 412 227.123 413.104 228.611 414.544C230.099 415.936 231.323 417.712 232.283 419.872C233.291 421.984 233.939 424.576 234.227 427.648C234.227 430.24 233.651 432.376 232.499 434.056C231.395 435.688 230.051 437.008 228.467 438.016C226.883 439.024 225.227 439.744 223.499 440.176C221.819 440.608 220.427 440.896 219.323 441.04C218.219 441.28 216.947 441.568 215.507 441.904C214.067 442.192 212.843 442.336 211.835 442.336C210.731 442.336 210.083 442.216 209.891 441.976C209.699 441.736 209.603 441.424 209.603 441.04C211.763 440.944 213.923 440.776 216.083 440.536C218.243 440.248 220.403 439.768 222.563 439.096C220.403 439.624 218.243 440.032 216.083 440.32C213.923 440.56 211.763 440.728 209.603 440.824C209.603 440.536 209.579 440.248 209.531 439.96C209.483 439.624 209.339 439.456 209.099 439.456C208.619 439.456 208.235 440.224 207.947 441.76C207.707 443.296 207.515 445.12 207.371 447.232C207.275 449.392 207.203 451.6 207.155 453.856C207.155 456.112 207.155 457.984 207.155 459.472C207.155 460.144 207.179 460.84 207.227 461.56C207.323 462.328 207.371 462.976 207.371 463.504C207.371 463.984 207.299 464.392 207.155 464.728C207.011 465.064 206.603 465.232 205.931 465.232V456.16C205.835 457.696 205.763 459.208 205.715 460.696C205.715 462.184 205.715 463.696 205.715 465.232H204.419V465.808C204.419 466.24 204.491 466.552 204.635 466.744C204.107 467.656 203.507 468.112 202.835 468.112C202.307 468.112 201.899 467.968 201.611 467.68C201.371 467.392 201.011 467.008 200.531 466.528L200.747 465.88ZM207.731 435.856H208.739C210.419 435.856 212.339 435.76 214.499 435.568C216.707 435.376 218.771 435.016 220.691 434.488C222.611 433.96 224.219 433.216 225.515 432.256C226.859 431.296 227.531 430.048 227.531 428.512V427.936C227.531 427.456 227.483 426.928 227.387 426.352C227.339 425.776 227.147 425.224 226.811 424.696C226.859 424.936 226.979 425.416 227.171 426.136C227.363 426.856 227.459 427.456 227.459 427.936C227.459 429.424 226.931 430.648 225.875 431.608C224.867 432.52 223.571 433.264 221.987 433.84C220.451 434.368 218.747 434.752 216.875 434.992C215.051 435.184 213.299 435.28 211.619 435.28H210.179C209.699 435.28 209.219 435.256 208.739 435.208C209.411 434.68 210.275 434.32 211.331 434.128C212.435 433.888 213.587 433.696 214.787 433.552C215.987 433.408 217.163 433.264 218.315 433.12C219.467 432.976 220.451 432.736 221.267 432.4L221.699 433.264C223.379 432.448 224.555 431.656 225.227 430.888C225.947 430.072 226.307 428.968 226.307 427.576C226.307 425.368 225.683 423.424 224.435 421.744C223.235 420.064 221.603 418.936 219.539 418.36L219.323 418.792C221.099 419.464 222.635 420.568 223.931 422.104C225.227 423.64 225.875 425.488 225.875 427.648C225.875 428.8 225.611 429.712 225.083 430.384C224.603 430.96 223.835 431.488 222.779 431.968C223.643 431.584 224.291 431.104 224.723 430.528C225.251 429.856 225.611 429.112 225.803 428.296C225.803 426.28 225.323 424.576 224.363 423.184C223.403 421.792 222.059 420.688 220.331 419.872C218.603 419.008 216.515 418.408 214.067 418.072C211.667 417.688 209.003 417.496 206.075 417.496C206.459 419.56 206.675 421.816 206.723 424.264C206.819 426.664 206.987 429.016 207.227 431.32L207.731 435.856ZM200.459 424.84C200.555 424.744 200.651 424.336 200.747 423.616C200.843 422.896 200.915 422.128 200.963 421.312C201.059 420.448 201.131 419.656 201.179 418.936C201.275 418.168 201.371 417.712 201.467 417.568L200.531 417.496L200.459 424.84ZM222.419 432.112L222.779 431.968L222.419 432.112ZM269.596 430.816C269.596 430.576 269.62 430.24 269.668 429.808C269.764 429.376 269.836 428.92 269.884 428.44C269.98 427.96 270.076 427.504 270.172 427.072C270.22 426.736 270.268 426.424 270.316 426.136C270.22 426.904 270.124 427.696 270.028 428.512C269.98 429.376 269.956 430.192 269.956 430.96H271.396C271.684 431.152 271.972 431.392 272.26 431.68C272.596 431.968 272.764 432.304 272.764 432.688C272.764 433.216 272.548 433.648 272.116 433.984C271.732 434.32 271.348 434.68 270.964 435.064C270.868 435.016 270.676 434.992 270.388 434.992C270.148 434.944 269.86 434.896 269.524 434.848C269.236 434.8 268.948 434.776 268.66 434.776C268.372 434.728 268.18 434.704 268.084 434.704V435.352L270.316 435.496C270.028 435.736 269.764 436.24 269.524 437.008C269.332 437.776 269.188 438.616 269.092 439.528C268.996 440.392 268.9 441.256 268.804 442.12C268.756 442.984 268.732 443.584 268.732 443.92L268.588 446.512C267.916 447.616 267.484 448.768 267.292 449.968C267.1 449.872 266.86 449.8 266.572 449.752C266.284 449.752 265.996 449.728 265.708 449.68C265.468 449.632 265.252 449.536 265.06 449.392C264.868 449.296 264.772 449.08 264.772 448.744C264.772 448.552 264.82 448.312 264.916 448.024L264.268 447.808C263.98 448.288 263.596 448.696 263.116 449.032C262.636 449.368 262.108 449.536 261.532 449.536C260.716 449.536 260.188 449.224 259.948 448.6C259.756 448.024 259.66 447.4 259.66 446.728C259.66 445.48 259.804 444.232 260.092 442.984C260.428 441.688 260.596 440.416 260.596 439.168L260.524 436.144L260.092 436.072L259.732 435.28C258.82 435.376 257.788 435.472 256.636 435.568C255.532 435.664 254.38 435.712 253.18 435.712C251.836 435.712 250.516 435.616 249.22 435.424C247.924 435.232 246.748 434.872 245.692 434.344C244.684 433.816 243.844 433.096 243.172 432.184C242.548 431.272 242.236 430.072 242.236 428.584C242.236 427.528 242.332 426.472 242.524 425.416C242.716 424.36 242.86 423.304 242.956 422.248H242.524C242.38 423.256 242.188 424.288 241.948 425.344C241.708 426.352 241.588 427.36 241.588 428.368C241.588 429.232 241.756 430.048 242.092 430.816C242.476 431.536 242.668 432.232 242.668 432.904L243.1 433.12C243.964 433.744 244.684 434.248 245.26 434.632C245.836 434.968 246.364 435.232 246.844 435.424C247.324 435.616 247.78 435.76 248.212 435.856C248.692 435.904 249.22 435.928 249.796 435.928C250.228 435.928 250.732 435.928 251.308 435.928C251.884 435.88 252.58 435.856 253.396 435.856L253.972 436.36C252.676 436.36 251.26 436.312 249.724 436.216C248.236 436.12 246.844 435.832 245.548 435.352C244.3 434.872 243.244 434.128 242.38 433.12C241.516 432.064 241.084 430.624 241.084 428.8C241.084 427.456 241.276 426.136 241.66 424.84C242.044 423.544 242.236 422.272 242.236 421.024C242.236 419.392 242.332 417.832 242.524 416.344C242.764 414.808 243.028 413.32 243.316 411.88C243.604 410.44 243.892 409 244.18 407.56C244.516 406.12 244.804 404.632 245.044 403.096L246.628 403.024C246.964 403.12 247.18 403.312 247.276 403.6C247.42 403.888 247.492 404.176 247.492 404.464L247.42 405.472H248.068C248.164 405.184 248.308 404.848 248.5 404.464C248.692 404.032 248.908 403.624 249.148 403.24C249.388 402.856 249.652 402.544 249.94 402.304C250.276 402.016 250.636 401.872 251.02 401.872C251.452 401.872 251.788 402.088 252.028 402.52C252.268 402.952 252.436 403.456 252.532 404.032C252.628 404.56 252.676 405.112 252.676 405.688C252.724 406.216 252.748 406.624 252.748 406.912C252.748 408.208 252.652 409.504 252.46 410.8C252.316 412.096 252.124 413.392 251.884 414.688C251.692 415.984 251.5 417.28 251.308 418.576C251.164 419.872 251.092 421.192 251.092 422.536C250.708 423.208 250.468 424 250.372 424.912C250.324 425.824 250.3 426.664 250.3 427.432C250.492 427.528 250.948 427.576 251.668 427.576C252.1 427.576 252.532 427.576 252.964 427.576C253.396 427.528 253.708 427.504 253.9 427.504L254.332 427.72C255.58 427.72 256.828 427.768 258.076 427.864C259.324 427.912 260.572 427.984 261.82 428.08C261.868 427.792 261.94 427.12 262.036 426.064C262.18 425.008 262.348 423.928 262.54 422.824C262.78 421.72 263.02 420.736 263.26 419.872C263.548 418.96 263.86 418.504 264.196 418.504C264.34 418.504 264.508 418.552 264.7 418.648L264.196 422.248C264.484 421 264.796 419.8 265.132 418.648L266.212 418.864C266.212 418.432 266.356 418.096 266.644 417.856C266.98 417.568 267.34 417.424 267.724 417.424C268.204 417.424 268.66 417.544 269.092 417.784C269.572 418.024 269.98 418.312 270.316 418.648C270.028 419.128 269.764 419.848 269.524 420.808C269.284 421.768 269.068 422.776 268.876 423.832C268.684 424.888 268.516 425.92 268.372 426.928C268.228 427.936 268.108 428.728 268.012 429.304L268.3 429.376C268.54 427.84 268.828 426.112 269.164 424.192C269.548 422.224 270.076 420.52 270.748 419.08C270.844 419.368 270.964 419.656 271.108 419.944C271.3 420.184 271.396 420.472 271.396 420.808C271.396 421.48 271.276 422.248 271.036 423.112C270.796 423.928 270.628 424.672 270.532 425.344L269.668 425.128C269.668 425.416 269.644 425.8 269.596 426.28C269.548 426.76 269.5 427.288 269.452 427.864C269.404 428.392 269.332 428.896 269.236 429.376C269.188 429.856 269.164 430.24 269.164 430.528L269.596 430.816ZM260.596 434.416C259.444 434.416 258.292 434.344 257.14 434.2C255.988 434.056 254.836 433.984 253.684 433.984H248.716C249.244 434.08 249.772 434.152 250.3 434.2C250.828 434.2 251.356 434.2 251.884 434.2H253.468L253.684 434.416L260.596 434.56V434.416ZM268.66 436.216C268.66 436.36 268.612 436.624 268.516 437.008C268.468 437.344 268.396 437.704 268.3 438.088C268.252 438.472 268.204 438.856 268.156 439.24C268.108 439.624 268.084 439.912 268.084 440.104V440.176C268.084 440.128 268.132 440.104 268.228 440.104C268.324 440.104 268.372 440.128 268.372 440.176H268.516C268.516 440.032 268.54 439.768 268.588 439.384C268.684 438.952 268.78 438.52 268.876 438.088C268.972 437.656 269.068 437.248 269.164 436.864C269.26 436.432 269.308 436.144 269.308 436L268.66 436.216ZM254.548 429.232C254.932 429.424 255.508 429.544 256.276 429.592C257.044 429.64 257.86 429.664 258.724 429.664H260.74C261.412 429.664 261.964 429.64 262.396 429.592L254.548 429.232ZM249.724 428.728C250.54 428.92 251.332 429.04 252.1 429.088C252.916 429.088 253.732 429.136 254.548 429.232C253.828 429.04 253.036 428.92 252.172 428.872C251.356 428.776 250.564 428.728 249.796 428.728H249.724ZM254.476 435.928H255.484C256.012 435.928 256.492 435.952 256.924 436C257.404 436 257.884 436.024 258.364 436.072L254.908 436.288L254.476 435.928ZM246.052 433.552C246.484 433.648 246.988 433.768 247.564 433.912C246.94 433.672 246.436 433.528 246.052 433.48C245.668 433.384 245.212 433.144 244.684 432.76C245.164 433.192 245.62 433.456 246.052 433.552ZM263.332 428.224C263.476 427.84 263.548 427.504 263.548 427.216V426.568L263.26 428.224H263.332Z" fill="white"/>
</svg>
