<svg width="368" height="473" viewBox="0 0 368 473" fill="none" xmlns="http://www.w3.org/2000/svg">
<path d="M1 40C1 18 19 0 41 0H278L367 89V432C367 454 349 472 327 472H41C19 472 1 454 1 432V40Z" fill="#CFD2FC"/>
<path d="M1 40C1 18 19 0 41 0H278L367 89V432C367 454 349 472 327 472H41C19 472 1 454 1 432V40Z" fill="#CFD2FC"/>
<path d="M278 0L367 89H308C291 89 278 76 278 59V0Z" fill="#8690FA"/>
<path d="M268 160H100C88.9543 160 80 168.954 80 180V270C80 281.046 88.9543 290 100 290H268C279.046 290 288 281.046 288 270V180C288 168.954 279.046 160 268 160Z" fill="#8690FA"/>
<path d="M168 200L218 225L168 250V200Z" fill="white"/>
<path d="M1 437.761V348H367V437.299L366.5 441L365 447.015L363 451.642L360 456.269L356.5 460.433L351.5 464.134L346.5 467.373L341.5 469.687L335 471.537L330 472H39L35 471.537L31 471.075L26.5 469.687L23.5 468.299L19 465.985L15 463.209L12 460.433L9.5 457.657L7 454.418L5 451.179L3 447.015L2 443.313L1 437.761Z" fill="#5153FF" stroke="#5153FF"/>
<path d="M90.2063 442.48C91.4063 441.76 92.5103 440.824 93.5183 439.672C94.5263 438.52 95.5823 437.392 96.6863 436.288C96.0143 436.72 95.4143 437.2 94.8863 437.728L93.3743 439.24C92.8463 439.768 92.2703 440.296 91.6463 440.824C91.0703 441.304 90.3743 441.736 89.5583 442.12C89.3183 441.88 89.1263 441.688 88.9823 441.544C88.8863 441.4 88.8383 441.208 88.8383 440.968C88.8383 440.728 88.8623 440.584 88.9103 440.536L91.2143 438.232C91.2143 438.424 91.3343 438.592 91.5743 438.736C91.8143 438.832 92.0063 438.88 92.1503 438.88C92.3903 438.16 92.7503 437.584 93.2303 437.152C93.7103 436.72 94.2143 436.336 94.7423 436C95.2703 435.616 95.7743 435.208 96.2543 434.776C96.7343 434.344 97.0943 433.768 97.3343 433.048C97.2863 433 97.2623 432.952 97.2623 432.904C97.1663 432.808 97.0943 432.76 97.0463 432.76L91.6463 437.8C91.9823 437.416 92.5343 436.768 93.3023 435.856C94.0703 434.944 94.8623 434.008 95.6783 433.048C96.4943 432.088 97.2383 431.248 97.9103 430.528C98.6303 429.808 99.0863 429.448 99.2783 429.448L99.3503 429.52C99.7343 429.664 100.262 429.808 100.934 429.952C101.654 430.048 102.182 430.096 102.518 430.096C102.854 430.096 103.238 430.024 103.67 429.88C103.67 430.168 103.814 430.504 104.102 430.888C104.39 431.272 104.702 431.656 105.038 432.04C105.374 432.424 105.686 432.808 105.974 433.192C106.262 433.528 106.406 433.792 106.406 433.984C106.406 434.32 106.286 434.488 106.046 434.488H105.83C105.83 434.92 105.854 435.688 105.902 436.792C105.998 437.848 106.046 439.072 106.046 440.464C106.046 441.232 105.806 441.904 105.326 442.48C104.846 443.056 104.294 443.56 103.67 443.992C103.046 444.424 102.398 444.784 101.726 445.072C101.102 445.36 100.622 445.576 100.286 445.72C99.9983 445.72 99.8783 445.864 99.9263 446.152C99.9743 446.488 99.8783 446.656 99.6383 446.656H99.2783C99.1343 446.656 98.9183 446.584 98.6303 446.44C98.3423 446.344 98.0303 446.2 97.6943 446.008C97.7423 445.864 97.9823 445.504 98.4143 444.928C98.8943 444.304 99.3983 443.656 99.9263 442.984C100.454 442.264 100.958 441.616 101.438 441.04C101.918 440.416 102.23 440.032 102.374 439.888C102.134 440.032 101.75 440.392 101.222 440.968C100.694 441.496 100.142 442.096 99.5663 442.768C99.0383 443.392 98.5103 443.992 97.9823 444.568C97.5023 445.096 97.1903 445.432 97.0463 445.576C96.4223 445.24 95.9903 445.072 95.7503 445.072L95.3903 445.36C94.8623 445.36 94.2863 445.24 93.6623 445C93.0863 444.808 92.5343 444.568 92.0063 444.28C91.5263 443.992 91.0943 443.704 90.7103 443.416C90.3743 443.128 90.2063 442.912 90.2063 442.768V442.48ZM159.737 407.632C158.681 409.648 157.433 412.36 155.993 415.768C154.553 419.128 152.969 422.68 151.241 426.424C152.633 423.64 153.977 420.88 155.273 418.144C156.617 415.408 158.033 412.552 159.521 409.576C159.041 411.64 158.465 413.584 157.793 415.408C157.169 417.184 156.449 418.912 155.633 420.592C154.865 422.272 154.049 423.976 153.185 425.704C152.321 427.432 151.457 429.256 150.593 431.176L149.369 431.896C148.553 433.864 147.689 435.856 146.777 437.872C145.913 439.84 144.857 441.712 143.609 443.488C142.409 445.264 140.993 446.872 139.361 448.312C137.729 449.752 135.809 450.904 133.601 451.768C132.881 451.336 132.137 450.856 131.369 450.328C130.601 449.8 129.833 449.368 129.065 449.032C129.065 448.984 129.041 448.936 128.993 448.888C128.993 448.84 128.993 448.768 128.993 448.672C128.993 448.288 129.017 447.664 129.065 446.8C129.161 445.984 129.257 445.144 129.353 444.28C129.449 443.416 129.521 442.648 129.569 441.976C129.665 441.256 129.713 440.824 129.713 440.68L129.281 441.112C129.281 441.448 129.233 441.952 129.137 442.624C129.089 443.248 128.993 443.92 128.849 444.64C128.753 445.36 128.657 446.056 128.561 446.728C128.513 447.448 128.489 448.024 128.489 448.456V448.816L134.033 452.2C135.425 452.056 136.889 451.24 138.425 449.752C140.009 448.264 141.521 446.512 142.961 444.496C144.401 442.48 145.697 440.44 146.849 438.376C147.857 436.6 148.649 435.136 149.225 433.984C148.553 435.424 147.737 437.08 146.777 438.952C145.721 441.016 144.521 443.008 143.177 444.928C141.881 446.848 140.465 448.504 138.929 449.896C137.393 451.336 135.785 452.2 134.105 452.488L128.417 449.176C128.321 448.984 128.273 448.768 128.273 448.528C128.273 447.76 128.393 446.704 128.633 445.36C128.873 444.016 128.993 442.888 128.993 441.976V441.4C128.753 441.64 128.393 442.096 127.913 442.768C127.433 443.44 126.881 444.136 126.257 444.856C125.681 445.528 125.081 446.128 124.457 446.656C123.881 447.184 123.401 447.448 123.017 447.448C122.201 446.92 121.433 446.344 120.713 445.72C119.993 445.144 119.249 444.568 118.481 443.992C118.145 442.504 117.641 441.016 116.969 439.528C116.345 438.04 115.673 436.576 114.953 435.136C114.233 433.648 113.561 432.16 112.937 430.672C112.313 429.184 111.881 427.648 111.641 426.064C111.257 423.76 110.657 421.456 109.841 419.152C109.073 416.848 108.401 414.544 107.825 412.24L108.113 412.384C108.353 412.288 108.569 412.144 108.761 411.952C109.001 411.76 109.217 411.664 109.409 411.664C109.697 411.664 109.961 411.928 110.201 412.456C110.441 412.936 110.633 413.512 110.777 414.184C110.969 414.808 111.113 415.432 111.209 416.056C111.353 416.632 111.449 417.016 111.497 417.208L112.361 416.992C112.265 415.936 112.169 414.904 112.073 413.896C111.977 412.84 111.929 411.784 111.929 410.728V410.008C111.929 409.672 111.953 409.312 112.001 408.928C112.097 408.544 112.193 408.208 112.289 407.92C112.433 407.632 112.625 407.488 112.865 407.488C113.441 407.488 114.089 408.28 114.809 409.864C115.529 411.448 116.273 413.392 117.041 415.696C117.809 417.952 118.553 420.328 119.273 422.824C120.041 425.32 120.737 427.504 121.361 429.376C121.505 429.856 121.697 430.432 121.937 431.104C122.225 431.728 122.489 432.352 122.729 432.976C122.969 433.6 123.185 434.176 123.377 434.704C123.617 435.184 123.761 435.52 123.809 435.712C123.953 434.992 124.193 434.008 124.529 432.76C124.865 431.464 125.201 430.12 125.537 428.728C125.921 427.288 126.281 425.944 126.617 424.696C127.001 423.4 127.313 422.416 127.553 421.744C127.937 421.696 128.297 421.672 128.633 421.672C128.969 421.624 129.281 421.6 129.569 421.6C130.529 421.6 131.393 421.72 132.161 421.96C132.929 422.152 133.913 422.488 135.113 422.968C135.449 423.688 135.713 424.6 135.905 425.704C136.097 426.808 136.241 427.984 136.337 429.232C136.481 430.48 136.553 431.752 136.553 433.048C136.601 434.344 136.625 435.544 136.625 436.648V439.528C138.593 436.648 140.297 433.72 141.737 430.744C143.225 427.72 144.689 424.648 146.129 421.528C146.273 421.192 146.513 420.616 146.849 419.8C147.185 418.984 147.569 418.072 148.001 417.064C148.481 416.056 148.961 415 149.441 413.896C149.969 412.744 150.473 411.712 150.953 410.8C151.433 409.888 151.865 409.144 152.249 408.568C152.681 407.944 153.017 407.632 153.257 407.632L153.689 407.848C152.921 409.624 152.153 411.328 151.385 412.96C150.665 414.592 149.921 416.2 149.153 417.784C148.433 419.368 147.713 421 146.993 422.68C146.273 424.312 145.553 426.016 144.833 427.792L153.905 408.28L154.625 408.928L154.985 408.712C155.081 408.376 155.249 407.896 155.489 407.272C155.777 406.648 156.089 406.024 156.425 405.4C156.809 404.776 157.193 404.224 157.577 403.744C158.009 403.264 158.441 403.024 158.873 403.024C159.065 403.024 159.233 403.12 159.377 403.312C159.521 403.504 159.617 403.744 159.665 404.032C159.761 404.32 159.833 404.608 159.881 404.896C159.929 405.136 159.953 405.328 159.953 405.472L159.737 407.632ZM125.105 436.936C125.345 436.168 125.609 435.304 125.897 434.344C126.233 433.336 126.569 432.28 126.905 431.176C127.289 430.072 127.625 429.04 127.913 428.08C128.249 427.072 128.513 426.256 128.705 425.632C128.897 424.96 128.993 424.576 128.993 424.48V424.408L128.201 424.984H127.913C127.673 425.992 127.385 427.072 127.049 428.224C126.713 429.328 126.377 430.456 126.041 431.608C125.705 432.76 125.393 433.912 125.105 435.064C124.865 436.168 124.721 437.2 124.673 438.16C124.721 438.016 124.865 437.608 125.105 436.936ZM133.457 450.832C134.801 450.64 136.169 449.896 137.561 448.6C139.001 447.304 140.345 445.84 141.593 444.208C142.841 442.528 143.945 440.848 144.905 439.168C145.913 437.44 146.681 436.024 147.209 434.92L148.433 432.256C147.425 434.272 146.393 436.216 145.337 438.088C144.185 440.104 143.009 441.928 141.809 443.56C140.609 445.192 139.385 446.584 138.137 447.736C136.889 448.888 135.665 449.656 134.465 450.04L133.169 450.616L130.217 448.6C130.217 448.312 130.241 447.856 130.289 447.232C130.385 446.656 130.457 446.032 130.505 445.36C130.601 444.688 130.673 444.04 130.721 443.416C130.817 442.792 130.865 442.264 130.865 441.832C130.817 442.216 130.745 442.744 130.649 443.416C130.553 444.04 130.433 444.664 130.289 445.288C130.193 445.96 130.097 446.584 130.001 447.16C129.953 447.736 129.929 448.168 129.929 448.456C129.929 448.696 130.049 448.936 130.289 449.176C130.577 449.416 130.889 449.632 131.225 449.824C131.609 450.064 131.993 450.28 132.377 450.472C132.809 450.664 133.145 450.832 133.385 450.976L133.457 450.832ZM144.689 428.152C143.489 430.6 142.265 433.024 141.017 435.424C139.769 437.824 138.233 440.032 136.409 442.048V442.264C138.233 440.248 139.793 438.016 141.089 435.568C142.385 433.072 143.585 430.6 144.689 428.152ZM132.593 445.36L133.097 441.472L131.873 445.216L132.593 445.36ZM122.441 440.68C122.297 440.68 122.105 440.824 121.865 441.112C121.673 441.352 121.457 441.64 121.217 441.976C120.977 442.264 120.761 442.576 120.569 442.912C120.377 443.2 120.257 443.392 120.209 443.488L120.281 443.56C120.377 443.512 120.545 443.368 120.785 443.128C121.025 442.84 121.265 442.552 121.505 442.264C121.745 441.928 121.961 441.616 122.153 441.328C122.345 441.04 122.489 440.848 122.585 440.752L122.441 440.68ZM136.769 446.152C136.049 445.72 135.233 445.504 134.321 445.504L133.313 445.576C133.841 445.672 134.369 445.792 134.897 445.936C135.425 446.08 135.953 446.152 136.481 446.152H136.769ZM130.649 439.24V439.888C130.649 439.792 130.649 439.72 130.649 439.672C130.697 439.528 130.721 439.384 130.721 439.24H130.649ZM130.721 440.536C130.721 440.44 130.697 440.368 130.649 440.32C130.649 440.368 130.673 440.44 130.721 440.536ZM149.513 433.408C149.417 433.6 149.321 433.792 149.225 433.984C149.321 433.792 149.417 433.6 149.513 433.408ZM195.748 441.544C195.748 439.96 195.628 438.352 195.388 436.72C195.196 435.088 195.1 433.504 195.1 431.968V430.024C194.86 428.152 194.572 425.968 194.236 423.472C193.9 420.928 193.468 418.528 192.94 416.272C192.412 414.016 191.764 412.096 190.996 410.512C190.228 408.928 189.268 408.136 188.116 408.136C186.436 408.136 184.708 408.928 182.932 410.512C181.156 412.048 179.668 414.304 178.468 417.28C177.892 418.96 177.484 420.736 177.244 422.608C177.052 424.48 176.884 426.448 176.74 428.512C176.596 430.576 176.452 432.712 176.308 434.92C176.212 437.08 175.996 439.336 175.66 441.688C175.564 441.928 175.468 442.216 175.372 442.552C175.324 442.888 175.276 443.176 175.228 443.416H166.372V437.584C166.324 437.104 166.276 436.528 166.228 435.856C166.18 435.184 166.108 434.512 166.012 433.84C165.964 433.12 165.916 432.424 165.868 431.752C165.82 431.08 165.772 430.504 165.724 430.024C165.724 426.136 165.556 422.248 165.22 418.36C164.932 414.472 164.74 410.512 164.644 406.48L166.3 406.12C166.444 406.12 166.588 406.264 166.732 406.552C166.924 406.792 167.068 407.272 167.164 407.992C167.308 408.712 167.428 409.744 167.524 411.088C167.668 412.384 167.788 414.088 167.884 416.2C167.932 416.2 168.004 416.176 168.1 416.128C168.292 416.032 168.436 415.984 168.532 415.984C168.532 415.648 168.508 415.312 168.46 414.976C168.46 414.64 168.46 414.304 168.46 413.968C168.46 409.84 168.724 406.672 169.252 404.464C169.828 402.208 170.308 401.08 170.692 401.08C170.98 401.08 171.268 401.704 171.556 402.952C171.844 404.2 172.156 406.168 172.492 408.856C173.308 407.56 174.244 406.312 175.3 405.112C176.356 403.912 177.532 402.88 178.828 402.016C180.172 401.104 181.612 400.384 183.148 399.856C184.684 399.328 186.364 399.064 188.188 399.064C189.772 399.064 191.164 399.4 192.364 400.072C193.564 400.744 194.62 401.632 195.532 402.736C196.492 403.792 197.284 405.016 197.908 406.408C198.58 407.752 199.156 409.12 199.636 410.512C200.116 411.856 200.5 413.176 200.788 414.472C201.124 415.72 201.412 416.776 201.652 417.64C201.652 417.736 201.676 417.856 201.724 418C201.772 418.096 201.82 418.192 201.868 418.288C202.444 416.752 203.164 415 204.028 413.032C204.892 411.016 205.972 409.12 207.268 407.344C208.564 405.568 210.076 404.08 211.804 402.88C213.58 401.632 215.62 401.008 217.924 401.008C220.18 401.008 222.1 401.608 223.684 402.808C225.268 404.008 226.588 405.544 227.644 407.416C228.748 409.288 229.612 411.376 230.236 413.68C230.908 415.936 231.412 418.168 231.748 420.376C232.084 422.536 232.3 424.528 232.396 426.352C232.492 428.176 232.54 429.568 232.54 430.528C232.54 432.064 232.468 433.192 232.324 433.912C232.228 434.632 231.916 434.992 231.388 434.992C231.292 433.072 231.196 431.128 231.1 429.16C231.052 427.192 230.908 425.224 230.668 423.256C230.476 421.24 230.188 419.272 229.804 417.352C229.42 415.48 228.916 413.632 228.292 411.808C229.492 415.6 230.188 419.392 230.38 423.184C230.62 427.024 230.812 430.816 230.956 434.56C230.62 434.224 230.356 434.056 230.164 434.056C230.02 434.056 229.924 434.152 229.876 434.344V436.504C229.876 437.128 229.876 437.776 229.876 438.448C229.924 439.12 229.996 439.696 230.092 440.176C229.996 442.144 229.9 443.56 229.804 444.424C229.756 445.24 229.588 445.768 229.3 446.008C228.916 446.008 228.58 445.792 228.292 445.36C228.004 444.928 227.716 444.376 227.428 443.704C227.188 443.032 226.948 442.288 226.708 441.472C226.468 440.656 226.228 439.864 225.988 439.096V437.152C225.988 435.04 225.964 432.832 225.916 430.528C225.916 428.224 225.82 425.992 225.628 423.832C225.484 421.624 225.22 419.536 224.836 417.568C224.5 415.6 224.02 413.872 223.396 412.384C222.82 410.848 222.052 409.648 221.092 408.784C220.18 407.92 219.052 407.488 217.708 407.488C216.604 407.488 215.596 407.776 214.684 408.352C214.156 408.688 213.628 409.12 213.1 409.648C213.628 409.168 214.18 408.76 214.756 408.424C215.668 407.848 216.652 407.56 217.708 407.56H217.996C219.196 407.56 220.204 408.04 221.02 409C221.884 409.912 222.58 411.136 223.108 412.672C223.684 414.208 224.116 415.96 224.404 417.928C224.692 419.896 224.908 421.936 225.052 424.048C225.244 426.16 225.364 428.272 225.412 430.384C225.46 432.448 225.508 434.344 225.556 436.072C225.268 434.728 225.004 433.144 224.764 431.32C224.572 429.448 224.356 427.504 224.116 425.488C223.924 423.472 223.66 421.48 223.324 419.512C223.036 417.544 222.652 415.792 222.172 414.256C221.692 412.672 221.092 411.4 220.372 410.44C219.652 409.48 218.764 409 217.708 409C217.276 409 216.892 409.048 216.556 409.144C216.22 409.192 215.788 409.432 215.26 409.864L214.54 409.504C212.908 410.944 211.54 412.864 210.436 415.264C209.332 417.664 208.396 420.256 207.628 423.04C206.86 425.776 206.212 428.584 205.684 431.464C205.156 434.344 204.652 437.008 204.172 439.456V442.192C204.94 438.4 205.636 434.68 206.26 431.032C206.932 427.336 207.892 423.76 209.14 420.304C208.18 423.28 207.436 426.352 206.908 429.52C206.38 432.688 205.78 435.928 205.108 439.24C205.108 439.576 205.036 440.032 204.892 440.608C204.748 441.184 204.508 442.048 204.172 443.2L196.252 442.408L195.748 441.544ZM196.54 437.944C196.396 436.648 196.252 434.992 196.108 432.976C196.012 430.96 195.868 428.824 195.676 426.568C195.484 424.312 195.22 422.032 194.884 419.728C194.548 417.424 194.068 415.36 193.444 413.536C192.868 411.664 192.124 410.152 191.212 409C190.348 407.848 189.244 407.272 187.9 407.272C187.468 407.272 187.012 407.368 186.532 407.56C186.052 407.752 185.596 407.968 185.164 408.208C185.308 408.16 185.428 408.136 185.524 408.136H185.596C185.596 408.184 185.524 408.28 185.38 408.424C186.676 407.992 187.684 407.776 188.404 407.776C189.316 408.112 190.132 408.856 190.852 410.008C191.572 411.16 192.172 412.552 192.652 414.184C193.18 415.768 193.612 417.496 193.948 419.368C194.332 421.24 194.62 423.04 194.812 424.768C195.004 426.448 195.148 427.96 195.244 429.304C195.34 430.648 195.388 431.608 195.388 432.184C195.532 433.624 195.652 435.04 195.748 436.432C195.892 437.824 195.964 439.216 195.964 440.608L196.54 437.944ZM202.588 418.576C202.588 418.624 202.636 418.84 202.732 419.224C202.828 419.56 202.9 419.776 202.948 419.872C203.092 419.392 203.404 418.624 203.884 417.568C204.364 416.464 204.892 415.312 205.468 414.112C206.044 412.864 206.596 411.712 207.124 410.656C207.316 410.224 207.484 409.84 207.628 409.504C207.484 409.792 207.292 410.104 207.052 410.44C206.524 411.4 205.948 412.408 205.324 413.464C204.7 414.472 204.124 415.456 203.596 416.416C203.068 417.376 202.732 418.096 202.588 418.576ZM208.276 417.712C207.316 420.16 206.476 422.752 205.756 425.488C205.036 428.176 204.388 430.96 203.812 433.84L203.956 434.992C204.58 431.536 205.3 428.056 206.116 424.552C206.884 421.48 207.868 418.576 209.068 415.84C209.02 415.984 208.972 416.104 208.924 416.2C208.684 416.68 208.468 417.184 208.276 417.712ZM196.54 427.504C196.636 428.272 196.684 429.016 196.684 429.736C196.732 430.456 196.78 431.128 196.828 431.752L197.044 435.208L197.116 434.848C197.068 434.176 197.044 433.528 197.044 432.904V431.104L196.54 427.504ZM220.156 402.808C219.292 402.568 218.476 402.448 217.708 402.448H216.916C216.58 402.448 216.412 402.472 216.412 402.52H216.484C217.252 402.712 217.972 402.808 218.644 402.808H220.156ZM209.5 419.296C209.74 418.624 209.956 417.976 210.148 417.352C210.388 416.728 210.58 416.296 210.724 416.056C210.724 416.152 210.676 416.344 210.58 416.632C210.484 416.968 210.292 417.472 210.004 418.144L209.5 419.296ZM225.124 405.832C224.884 405.544 224.572 405.256 224.188 404.968C223.9 404.776 223.636 404.608 223.396 404.464C223.972 404.848 224.548 405.304 225.124 405.832ZM207.988 408.856C207.892 408.952 207.82 409.096 207.772 409.288C207.868 409.144 207.94 409 207.988 408.856ZM248.225 445.072C247.121 440.752 245.969 436.576 244.769 432.544C243.569 428.464 242.321 424.36 241.025 420.232C240.401 418.312 239.873 416.44 239.441 414.616C239.009 412.744 238.385 410.872 237.569 409C237.905 408.904 238.169 408.736 238.361 408.496C238.601 408.208 238.889 408.064 239.225 408.064C239.465 408.064 239.681 408.208 239.873 408.496C240.113 408.784 240.305 409.12 240.449 409.504C240.641 409.84 240.809 410.2 240.953 410.584C241.097 410.968 241.193 411.232 241.241 411.376L242.105 411.16C241.913 410.392 241.745 409.648 241.601 408.928C241.505 408.16 241.457 407.392 241.457 406.624C241.457 406.336 241.481 405.904 241.529 405.328C241.625 404.704 241.913 404.392 242.393 404.392C243.113 404.392 243.905 405.064 244.769 406.408C245.633 407.704 246.473 409.384 247.289 411.448C248.153 413.512 248.993 415.792 249.809 418.288C250.625 420.736 251.369 423.112 252.041 425.416C252.713 427.72 253.289 429.784 253.769 431.608C254.297 433.432 254.657 434.728 254.849 435.496C256.097 433.912 257.201 432.256 258.161 430.528C259.121 428.8 260.057 427.072 260.969 425.344C261.929 423.568 262.913 421.84 263.921 420.16C264.977 418.432 266.201 416.8 267.593 415.264C267.929 414.88 268.433 414.256 269.105 413.392C269.825 412.528 270.569 411.664 271.337 410.8C272.153 409.888 272.945 409.096 273.713 408.424C274.481 407.752 275.105 407.416 275.585 407.416C275.825 407.416 276.041 407.584 276.233 407.92C274.409 409.744 272.585 411.568 270.761 413.392C268.985 415.216 267.425 417.28 266.081 419.584C267.473 417.376 269.057 415.384 270.833 413.608C272.657 411.784 274.529 410.032 276.449 408.352L277.097 409.216C277.385 408.784 277.913 408.304 278.681 407.776C279.449 407.248 280.097 406.984 280.625 406.984C281.009 406.984 281.297 407.104 281.489 407.344C281.681 407.584 281.777 407.896 281.777 408.28C281.777 408.616 281.729 409.048 281.633 409.576C281.537 410.104 281.393 410.488 281.201 410.728C280.961 411.064 280.673 411.352 280.337 411.592C278.753 413.032 277.241 414.376 275.801 415.624C274.409 416.824 273.089 418.312 271.841 420.088L272.345 419.584C273.641 418.048 274.937 416.68 276.233 415.48C277.577 414.28 279.089 413.128 280.769 412.024C279.857 413.56 278.801 414.88 277.601 415.984C276.449 417.04 275.273 418.24 274.073 419.584C273.497 420.256 272.993 421 272.561 421.816C272.177 422.584 271.673 423.28 271.049 423.904L270.401 423.688C269.489 425.656 268.529 427.672 267.521 429.736C266.561 431.752 265.505 433.744 264.353 435.712C263.201 437.632 261.905 439.456 260.465 441.184C259.073 442.912 257.489 444.424 255.713 445.72C255.569 446.008 255.257 446.248 254.777 446.44C254.345 446.68 254.009 446.872 253.769 447.016L249.233 445C248.897 443.896 248.513 442.72 248.081 441.472C247.697 440.224 247.313 439.048 246.929 437.944L246.569 438.016L248.513 445C248.561 445.048 248.633 445.096 248.729 445.144C248.873 445.192 249.113 445.288 249.449 445.432C249.833 445.624 250.385 445.864 251.105 446.152C251.873 446.488 252.905 446.92 254.201 447.448C256.121 446.296 257.753 445.048 259.097 443.704C260.393 442.408 261.641 440.872 262.841 439.096C262.313 440.008 261.761 440.848 261.185 441.616C260.609 442.432 259.985 443.2 259.313 443.92C258.641 444.64 257.897 445.312 257.081 445.936C256.265 446.608 255.329 447.232 254.273 447.808L248.225 445.072ZM258.305 442.264C260.609 439.672 262.577 436.936 264.209 434.056C265.889 431.176 267.377 428.224 268.673 425.2V425.056C267.857 426.496 267.041 427.984 266.225 429.52C265.457 431.008 264.665 432.496 263.849 433.984C263.033 435.424 262.169 436.864 261.257 438.304C260.345 439.696 259.361 441.016 258.305 442.264ZM261.617 427.648C263.057 424.912 264.545 422.224 266.081 419.584C264.401 422.176 262.865 424.816 261.473 427.504C260.081 430.144 258.569 432.712 256.937 435.208C258.665 432.808 260.225 430.288 261.617 427.648ZM271.553 420.52C271.073 421.192 270.617 421.864 270.185 422.536C269.801 423.16 269.417 423.784 269.033 424.408C269.465 423.784 269.969 423.184 270.545 422.608C271.121 421.984 271.457 421.288 271.553 420.52ZM263.201 438.592C263.969 437.344 264.689 436.072 265.361 434.776C265.409 434.728 265.457 434.68 265.505 434.632C265.457 434.68 265.433 434.728 265.433 434.776C264.761 436.072 264.017 437.344 263.201 438.592ZM266.441 432.832L265.865 433.912L266.441 432.832ZM267.017 431.68C266.825 432.064 266.633 432.448 266.441 432.832C266.633 432.448 266.825 432.064 267.017 431.68ZM265.793 433.984C265.745 434.128 265.673 434.272 265.577 434.416C265.673 434.272 265.745 434.128 265.793 433.984ZM263.057 438.808C262.961 438.904 262.889 439 262.841 439.096C262.889 439 262.961 438.904 263.057 438.808Z" fill="white"/>
</svg>
