<svg width="368" height="473" viewBox="0 0 368 473" fill="none" xmlns="http://www.w3.org/2000/svg">
<path d="M1 40C1 18 19 0 41 0H278L367 89V432C367 454 349 472 327 472H41C19 472 1 454 1 432V40Z" fill="#CFD2FC"/>
<path d="M278 0L367 89H308C291 89 278 76 278 59V0Z" fill="#8690FA"/>
<path d="M268 160H100C88.9543 160 80 168.954 80 180V270C80 281.046 88.9543 290 100 290H268C279.046 290 288 281.046 288 270V180C288 168.954 279.046 160 268 160Z" fill="#8690FA"/>
<path d="M168 200L218 225L168 250V200Z" fill="white"/>
<path d="M1 437.761V348H367V437.299L366.5 441L365 447.015L363 451.642L360 456.269L356.5 460.433L351.5 464.134L346.5 467.373L341.5 469.687L335 471.537L330 472H39L35 471.537L31 471.075L26.5 469.687L23.5 468.299L19 465.985L15 463.209L12 460.433L9.5 457.657L7 454.418L5 451.179L3 447.015L2 443.313L1 437.761Z" fill="#5153FF" stroke="#5153FF"/>
<path d="M117.347 442.48C118.547 441.76 119.651 440.824 120.659 439.672C121.667 438.52 122.723 437.392 123.827 436.288C123.155 436.72 122.555 437.2 122.027 437.728L120.515 439.24C119.987 439.768 119.411 440.296 118.787 440.824C118.211 441.304 117.515 441.736 116.699 442.12C116.459 441.88 116.267 441.688 116.123 441.544C116.027 441.4 115.979 441.208 115.979 440.968C115.979 440.728 116.003 440.584 116.051 440.536L118.355 438.232C118.355 438.424 118.475 438.592 118.715 438.736C118.955 438.832 119.147 438.88 119.291 438.88C119.531 438.16 119.891 437.584 120.371 437.152C120.851 436.72 121.355 436.336 121.883 436C122.411 435.616 122.915 435.208 123.395 434.776C123.875 434.344 124.235 433.768 124.475 433.048C124.427 433 124.403 432.952 124.403 432.904C124.307 432.808 124.235 432.76 124.187 432.76L118.787 437.8C119.123 437.416 119.675 436.768 120.443 435.856C121.211 434.944 122.003 434.008 122.819 433.048C123.635 432.088 124.379 431.248 125.051 430.528C125.771 429.808 126.227 429.448 126.419 429.448L126.491 429.52C126.875 429.664 127.403 429.808 128.075 429.952C128.795 430.048 129.323 430.096 129.659 430.096C129.995 430.096 130.379 430.024 130.811 429.88C130.811 430.168 130.955 430.504 131.243 430.888C131.531 431.272 131.843 431.656 132.179 432.04C132.515 432.424 132.827 432.808 133.115 433.192C133.403 433.528 133.547 433.792 133.547 433.984C133.547 434.32 133.427 434.488 133.187 434.488H132.971C132.971 434.92 132.995 435.688 133.043 436.792C133.139 437.848 133.187 439.072 133.187 440.464C133.187 441.232 132.947 441.904 132.467 442.48C131.987 443.056 131.435 443.56 130.811 443.992C130.187 444.424 129.539 444.784 128.867 445.072C128.243 445.36 127.763 445.576 127.427 445.72C127.139 445.72 127.019 445.864 127.067 446.152C127.115 446.488 127.019 446.656 126.779 446.656H126.419C126.275 446.656 126.059 446.584 125.771 446.44C125.483 446.344 125.171 446.2 124.835 446.008C124.883 445.864 125.123 445.504 125.555 444.928C126.035 444.304 126.539 443.656 127.067 442.984C127.595 442.264 128.099 441.616 128.579 441.04C129.059 440.416 129.371 440.032 129.515 439.888C129.275 440.032 128.891 440.392 128.363 440.968C127.835 441.496 127.283 442.096 126.707 442.768C126.179 443.392 125.651 443.992 125.123 444.568C124.643 445.096 124.331 445.432 124.187 445.576C123.563 445.24 123.131 445.072 122.891 445.072L122.531 445.36C122.003 445.36 121.427 445.24 120.803 445C120.227 444.808 119.675 444.568 119.147 444.28C118.667 443.992 118.235 443.704 117.851 443.416C117.515 443.128 117.347 442.912 117.347 442.768V442.48ZM166.001 426.136C164.705 426.136 163.721 426.112 163.049 426.064C162.425 426.016 161.849 425.992 161.321 425.992C159.881 425.992 158.609 426.064 157.505 426.208C156.401 426.352 155.465 426.64 154.697 427.072C153.929 427.504 153.353 428.128 152.969 428.944C152.585 429.76 152.393 430.84 152.393 432.184C152.393 434.152 152.609 435.616 153.041 436.576C153.521 437.488 154.169 438.16 154.985 438.592C155.849 438.976 156.881 439.216 158.081 439.312C159.281 439.408 160.625 439.624 162.113 439.96C162.977 440.056 163.841 440.128 164.705 440.176C165.569 440.176 166.433 440.176 167.297 440.176H172.481C170.081 440.032 167.681 439.96 165.281 439.96C162.929 439.912 160.793 439.696 158.873 439.312C157.001 438.928 155.465 438.256 154.265 437.296C153.113 436.336 152.537 434.872 152.537 432.904C152.537 431.32 152.729 430.12 153.113 429.304C153.545 428.44 154.097 427.816 154.769 427.432C155.489 427 156.329 426.76 157.289 426.712C158.249 426.616 159.281 426.568 160.385 426.568C161.729 426.568 163.097 426.64 164.489 426.784C163.385 427.12 162.257 427.384 161.105 427.576C160.001 427.72 158.969 427.888 158.009 428.08C157.049 428.224 156.209 428.44 155.489 428.728C154.817 428.968 154.361 429.328 154.121 429.808V433.048L153.545 433.336C153.737 434.536 153.905 435.448 154.049 436.072C154.241 436.648 154.721 437.104 155.489 437.44C156.257 437.728 157.481 437.968 159.161 438.16C160.889 438.352 163.385 438.664 166.649 439.096H171.833C172.745 439.096 173.273 439.072 173.417 439.024C173.609 438.928 173.729 438.88 173.777 438.88L173.129 434.992C173.033 434.032 172.913 433.168 172.769 432.4C172.625 431.632 172.433 430.816 172.193 429.952C172.145 430.096 172.001 430.168 171.761 430.168C172.001 430.984 172.193 431.848 172.337 432.76C172.529 433.672 172.673 434.536 172.769 435.352C172.913 436.168 173.009 436.864 173.057 437.44C173.153 438.016 173.249 438.352 173.345 438.448L172.913 438.592C172.817 438.64 172.673 438.664 172.481 438.664H172.049C171.713 438.664 171.329 438.64 170.897 438.592C170.465 438.496 169.913 438.448 169.241 438.448H166.865C164.993 438.448 163.265 438.352 161.681 438.16C160.193 437.968 158.897 437.728 157.793 437.44C158.897 437.68 160.241 437.872 161.825 438.016C163.505 438.208 165.065 438.304 166.505 438.304C167.129 438.304 167.777 438.304 168.449 438.304C169.169 438.256 169.937 438.232 170.753 438.232H173.129C172.985 438.088 172.817 438.016 172.625 438.016H172.481C172.289 434.704 171.857 431.536 171.185 428.512C170.513 425.488 169.433 422.848 167.945 420.592C166.457 418.288 164.513 416.464 162.113 415.12C159.713 413.728 156.713 413.032 153.113 413.032C152.105 413.032 151.097 413.104 150.089 413.248C149.081 413.392 148.049 413.584 146.993 413.824C147.089 413.728 147.137 413.632 147.137 413.536C147.137 413.296 147.041 413.08 146.849 412.888C146.657 412.648 146.561 412.408 146.561 412.168C146.561 411.88 146.849 411.616 147.425 411.376C148.049 411.088 149.345 410.824 151.313 410.584C151.217 410.488 151.145 410.344 151.097 410.152C151.097 409.96 151.097 409.816 151.097 409.72C148.505 409.72 146.489 409.672 145.049 409.576C143.609 409.432 142.889 409.072 142.889 408.496C142.889 408.256 143.177 407.92 143.753 407.488C144.377 407.056 145.241 406.648 146.345 406.264C147.449 405.832 148.769 405.472 150.305 405.184C151.889 404.848 153.641 404.68 155.561 404.68C159.257 404.68 162.425 405.256 165.065 406.408C167.705 407.512 169.913 409 171.689 410.872C173.513 412.696 174.977 414.784 176.081 417.136C177.233 419.488 178.145 421.864 178.817 424.264C179.537 426.616 180.065 428.92 180.401 431.176C180.737 433.384 181.049 435.304 181.337 436.936C181.337 437.224 181.337 437.512 181.337 437.8C181.385 438.088 181.409 438.424 181.409 438.808C181.409 440.2 181.145 441.424 180.617 442.48C180.137 443.488 179.441 444.328 178.529 445C177.665 445.72 176.633 446.248 175.433 446.584C174.281 446.968 173.033 447.16 171.689 447.16C170.633 447.16 169.265 447.136 167.585 447.088C165.905 447.04 164.297 446.896 162.761 446.656C161.753 446.416 160.649 446.224 159.449 446.08C158.249 445.984 157.025 445.792 155.777 445.504C154.529 445.216 153.305 444.808 152.105 444.28C150.953 443.752 149.897 442.96 148.937 441.904C148.025 440.8 147.281 439.384 146.705 437.656C146.177 435.928 145.913 433.744 145.913 431.104C145.913 428.608 146.489 426.616 147.641 425.128C148.793 423.592 150.161 422.416 151.745 421.6C153.377 420.736 155.033 420.184 156.713 419.944C158.393 419.656 159.761 419.512 160.817 419.512C162.161 419.512 163.049 419.608 163.481 419.8C163.913 419.992 164.129 420.184 164.129 420.376C164.129 420.52 164.105 420.64 164.057 420.736C162.857 420.736 161.321 420.784 159.449 420.88C157.577 420.976 155.753 421.288 153.977 421.816C152.249 422.344 150.761 423.16 149.513 424.264C148.265 425.32 147.641 426.832 147.641 428.8C148.073 427.024 148.793 425.632 149.801 424.624C150.857 423.568 152.057 422.8 153.401 422.32C154.745 421.792 156.113 421.48 157.505 421.384C158.945 421.24 160.241 421.168 161.393 421.168H163.841C163.649 421.36 163.553 421.552 163.553 421.744C163.553 421.936 163.649 422.104 163.841 422.248H166.649C167.417 422.392 167.969 422.656 168.305 423.04C168.641 423.376 168.809 423.688 168.809 423.976C168.809 424.408 168.593 424.792 168.161 425.128C167.729 425.464 167.009 425.8 166.001 426.136ZM153.905 443.56C155.249 444.088 156.617 444.496 158.009 444.784C159.449 445.072 160.865 445.264 162.257 445.36C163.649 445.504 164.945 445.576 166.145 445.576C165.185 445.48 164.225 445.312 163.265 445.072C162.257 444.832 161.369 444.616 160.601 444.424C159.785 444.232 158.969 444.112 158.153 444.064C157.385 443.968 156.569 443.848 155.705 443.704C154.889 443.56 154.049 443.344 153.185 443.056C152.321 442.72 151.457 442.24 150.593 441.616C151.505 442.432 152.609 443.08 153.905 443.56ZM154.625 436C154.577 435.952 154.721 436.096 155.057 436.432C155.345 436.72 155.729 436.936 156.209 437.08C155.969 436.984 155.609 436.864 155.129 436.72C154.601 436.528 154.337 436.24 154.337 435.856L154.625 436ZM156.425 437.08C156.377 437.08 156.305 437.08 156.209 437.08C156.257 437.08 156.329 437.08 156.425 437.08ZM197.6 445.072C196.496 440.752 195.344 436.576 194.144 432.544C192.944 428.464 191.696 424.36 190.4 420.232C189.776 418.312 189.248 416.44 188.816 414.616C188.384 412.744 187.76 410.872 186.944 409C187.28 408.904 187.544 408.736 187.736 408.496C187.976 408.208 188.264 408.064 188.6 408.064C188.84 408.064 189.056 408.208 189.248 408.496C189.488 408.784 189.68 409.12 189.824 409.504C190.016 409.84 190.184 410.2 190.328 410.584C190.472 410.968 190.568 411.232 190.616 411.376L191.48 411.16C191.288 410.392 191.12 409.648 190.976 408.928C190.88 408.16 190.832 407.392 190.832 406.624C190.832 406.336 190.856 405.904 190.904 405.328C191 404.704 191.288 404.392 191.768 404.392C192.488 404.392 193.28 405.064 194.144 406.408C195.008 407.704 195.848 409.384 196.664 411.448C197.528 413.512 198.368 415.792 199.184 418.288C200 420.736 200.744 423.112 201.416 425.416C202.088 427.72 202.664 429.784 203.144 431.608C203.672 433.432 204.032 434.728 204.224 435.496C205.472 433.912 206.576 432.256 207.536 430.528C208.496 428.8 209.432 427.072 210.344 425.344C211.304 423.568 212.288 421.84 213.296 420.16C214.352 418.432 215.576 416.8 216.968 415.264C217.304 414.88 217.808 414.256 218.48 413.392C219.2 412.528 219.944 411.664 220.712 410.8C221.528 409.888 222.32 409.096 223.088 408.424C223.856 407.752 224.48 407.416 224.96 407.416C225.2 407.416 225.416 407.584 225.608 407.92C223.784 409.744 221.96 411.568 220.136 413.392C218.36 415.216 216.8 417.28 215.456 419.584C216.848 417.376 218.432 415.384 220.208 413.608C222.032 411.784 223.904 410.032 225.824 408.352L226.472 409.216C226.76 408.784 227.288 408.304 228.056 407.776C228.824 407.248 229.472 406.984 230 406.984C230.384 406.984 230.672 407.104 230.864 407.344C231.056 407.584 231.152 407.896 231.152 408.28C231.152 408.616 231.104 409.048 231.008 409.576C230.912 410.104 230.768 410.488 230.576 410.728C230.336 411.064 230.048 411.352 229.712 411.592C228.128 413.032 226.616 414.376 225.176 415.624C223.784 416.824 222.464 418.312 221.216 420.088L221.72 419.584C223.016 418.048 224.312 416.68 225.608 415.48C226.952 414.28 228.464 413.128 230.144 412.024C229.232 413.56 228.176 414.88 226.976 415.984C225.824 417.04 224.648 418.24 223.448 419.584C222.872 420.256 222.368 421 221.936 421.816C221.552 422.584 221.048 423.28 220.424 423.904L219.776 423.688C218.864 425.656 217.904 427.672 216.896 429.736C215.936 431.752 214.88 433.744 213.728 435.712C212.576 437.632 211.28 439.456 209.84 441.184C208.448 442.912 206.864 444.424 205.088 445.72C204.944 446.008 204.632 446.248 204.152 446.44C203.72 446.68 203.384 446.872 203.144 447.016L198.608 445C198.272 443.896 197.888 442.72 197.456 441.472C197.072 440.224 196.688 439.048 196.304 437.944L195.944 438.016L197.888 445C197.936 445.048 198.008 445.096 198.104 445.144C198.248 445.192 198.488 445.288 198.824 445.432C199.208 445.624 199.76 445.864 200.48 446.152C201.248 446.488 202.28 446.92 203.576 447.448C205.496 446.296 207.128 445.048 208.472 443.704C209.768 442.408 211.016 440.872 212.216 439.096C211.688 440.008 211.136 440.848 210.56 441.616C209.984 442.432 209.36 443.2 208.688 443.92C208.016 444.64 207.272 445.312 206.456 445.936C205.64 446.608 204.704 447.232 203.648 447.808L197.6 445.072ZM207.68 442.264C209.984 439.672 211.952 436.936 213.584 434.056C215.264 431.176 216.752 428.224 218.048 425.2V425.056C217.232 426.496 216.416 427.984 215.6 429.52C214.832 431.008 214.04 432.496 213.224 433.984C212.408 435.424 211.544 436.864 210.632 438.304C209.72 439.696 208.736 441.016 207.68 442.264ZM210.992 427.648C212.432 424.912 213.92 422.224 215.456 419.584C213.776 422.176 212.24 424.816 210.848 427.504C209.456 430.144 207.944 432.712 206.312 435.208C208.04 432.808 209.6 430.288 210.992 427.648ZM220.928 420.52C220.448 421.192 219.992 421.864 219.56 422.536C219.176 423.16 218.792 423.784 218.408 424.408C218.84 423.784 219.344 423.184 219.92 422.608C220.496 421.984 220.832 421.288 220.928 420.52ZM212.576 438.592C213.344 437.344 214.064 436.072 214.736 434.776C214.784 434.728 214.832 434.68 214.88 434.632C214.832 434.68 214.808 434.728 214.808 434.776C214.136 436.072 213.392 437.344 212.576 438.592ZM215.816 432.832L215.24 433.912L215.816 432.832ZM216.392 431.68C216.2 432.064 216.008 432.448 215.816 432.832C216.008 432.448 216.2 432.064 216.392 431.68ZM215.168 433.984C215.12 434.128 215.048 434.272 214.952 434.416C215.048 434.272 215.12 434.128 215.168 433.984ZM212.432 438.808C212.336 438.904 212.264 439 212.216 439.096C212.264 439 212.336 438.904 212.432 438.808ZM236.609 441.256C236.801 439.912 236.969 438.352 237.113 436.576C237.305 434.752 237.473 432.928 237.617 431.104C237.761 429.28 237.905 427.504 238.049 425.776C238.193 424 238.337 422.464 238.481 421.168C238.241 422.464 238.025 423.952 237.833 425.632C237.641 427.312 237.449 429.04 237.257 430.816C237.065 432.592 236.873 434.368 236.681 436.144C236.489 437.872 236.321 439.432 236.177 440.824C235.457 440.344 235.097 439.696 235.097 438.88C235.097 437.92 235.121 437.128 235.169 436.504C235.217 435.832 235.289 435.064 235.385 434.2L236.177 433.48C236.129 433.24 236.105 433.024 236.105 432.832V432.112C236.105 431.008 236.225 429.76 236.465 428.368C236.705 426.928 236.969 425.488 237.257 424.048C237.593 422.56 237.881 421.144 238.121 419.8C238.361 418.408 238.481 417.208 238.481 416.2L237.617 415.984C237.521 417.136 237.377 418.456 237.185 419.944C236.993 421.384 236.777 422.896 236.537 424.48C236.345 426.016 236.153 427.552 235.961 429.088C235.865 429.904 235.769 430.672 235.673 431.392C235.769 430.048 235.889 428.608 236.033 427.072C236.273 424.864 236.513 422.68 236.753 420.52C237.041 418.312 237.305 416.152 237.545 414.04C237.785 411.928 238.025 409.984 238.265 408.208C238.265 407.488 238.433 406.72 238.769 405.904C239.153 405.04 239.417 404.152 239.561 403.24C239.849 403.336 240.089 403.384 240.281 403.384H240.785C241.265 403.384 241.577 403.504 241.721 403.744C241.865 403.936 241.937 404.224 241.937 404.608V404.968L242.585 405.184C242.969 404.464 243.425 403.888 243.953 403.456C244.481 403.024 245.009 402.808 245.537 402.808C246.689 402.808 247.265 404.032 247.265 406.48C247.265 407.776 247.121 409.168 246.833 410.656C246.593 412.096 246.473 413.512 246.473 414.904V415.84C246.473 417.376 246.305 419.056 245.969 420.88C245.633 422.656 245.249 424.48 244.817 426.352C244.433 428.176 244.073 429.952 243.737 431.68C243.401 433.408 243.233 434.992 243.233 436.432C243.233 436.768 243.257 437.128 243.305 437.512C243.353 437.896 243.377 438.256 243.377 438.592C243.377 439.312 243.233 439.768 242.945 439.96C242.705 440.104 242.393 440.176 242.009 440.176C242.009 439.552 241.985 438.784 241.937 437.872C241.889 436.96 241.865 436.144 241.865 435.424C241.769 435.952 241.721 436.672 241.721 437.584C241.721 438.496 241.673 439.36 241.577 440.176H240.497V441.04C240.065 441.808 239.489 442.192 238.769 442.192C238.433 442.192 238.049 442.096 237.617 441.904C237.185 441.712 236.849 441.496 236.609 441.256ZM251.441 385.96C250.625 386.44 249.881 387.064 249.209 387.832C248.537 388.6 247.841 389.344 247.121 390.064C247.553 389.776 247.937 389.464 248.273 389.128C248.609 388.792 248.945 388.456 249.281 388.12C249.665 387.784 250.049 387.448 250.433 387.112C250.865 386.776 251.345 386.464 251.873 386.176C252.017 386.368 252.137 386.536 252.233 386.68C252.377 386.824 252.449 386.968 252.449 387.112L250.793 388.768C250.793 388.672 250.697 388.576 250.505 388.48C250.361 388.384 250.241 388.336 250.145 388.336C250.001 388.816 249.761 389.2 249.425 389.488C249.089 389.776 248.753 390.04 248.417 390.28C248.081 390.52 247.745 390.784 247.409 391.072C247.073 391.36 246.833 391.744 246.689 392.224V392.368C246.689 392.416 246.761 392.44 246.905 392.44L250.505 389.056L249.137 390.424C248.465 391.096 247.745 391.792 246.977 392.512C246.257 393.184 245.561 393.784 244.889 394.312C244.265 394.84 243.881 395.104 243.737 395.104L243.665 395.032C243.329 394.936 242.969 394.888 242.585 394.888C242.249 394.888 241.889 394.864 241.505 394.816C241.505 394.432 241.433 394.024 241.289 393.592C241.193 393.16 241.145 392.824 241.145 392.584C241.145 392.344 241.265 392.224 241.505 392.224C241.505 392.08 241.409 391.864 241.217 391.576C241.073 391.24 240.905 390.88 240.713 390.496C240.521 390.064 240.329 389.632 240.137 389.2C239.993 388.72 239.921 388.24 239.921 387.76C239.921 387.28 240.113 386.824 240.497 386.392C240.929 385.912 241.409 385.504 241.937 385.168C242.513 384.832 243.065 384.544 243.593 384.304C244.121 384.064 244.505 383.896 244.745 383.8C244.937 383.8 245.009 383.704 244.961 383.512C244.913 383.272 244.985 383.152 245.177 383.152L246.473 383.584C246.377 383.824 246.065 384.232 245.537 384.808C245.057 385.336 244.697 385.72 244.457 385.96C244.793 385.72 245.177 385.36 245.609 384.88C246.089 384.4 246.449 384.04 246.689 383.8C246.929 383.896 247.145 383.992 247.337 384.088C247.529 384.184 247.673 384.232 247.769 384.232L247.985 384.016C248.321 384.016 248.681 384.088 249.065 384.232C249.497 384.376 249.881 384.544 250.217 384.736C250.553 384.928 250.841 385.144 251.081 385.384C251.321 385.624 251.441 385.816 251.441 385.96ZM235.529 433.12C235.577 432.592 235.625 432.064 235.673 431.536C235.625 432.112 235.577 432.64 235.529 433.12Z" fill="white"/>
</svg>
